<svg xmlns="http://www.w3.org/2000/svg" xmlns:xlink="http://www.w3.org/1999/xlink" viewBox="0 0 260 260" width="260" height="260" preserveAspectRatio="xMidYMid slice" style="width: 100%; height: 100%; transform: translate3d(0px, 0px, 0px); content-visibility: visible;"><defs><clipPath id="__lottie_element_2"><rect width="260" height="260" x="0" y="0"></rect></clipPath><clipPath id="__lottie_element_7"><path d="M0,0 L223,0 L223,223 L0,223z"></path></clipPath><clipPath id="__lottie_element_11"><path d="M0,0 L223,0 L223,223 L0,223z"></path></clipPath><clipPath id="__lottie_element_15"><path fill="#ffffff" clip-rule="nonzero" d=" M21.86400032043457,64.91100311279297 C21.86400032043457,64.91100311279297 3.306999921798706,147.3350067138672 3.306999921798706,147.3350067138672 C3.306999921798706,147.3350067138672 12.717000007629395,145.1280059814453 12.717000007629395,145.1280059814453 C12.717000007629395,145.1280059814453 14.574999809265137,136.21600341796875 14.574999809265137,136.21600341796875 C14.574999809265137,136.21600341796875 64.66000366210938,122.19499969482422 64.66000366210938,122.19499969482422 C64.66000366210938,122.19499969482422 63.09600067138672,130.70199584960938 63.09600067138672,130.70199584960938 C63.09600067138672,130.70199584960938 71.6719970703125,128.05299377441406 71.6719970703125,128.05299377441406 C71.6719970703125,128.05299377441406 90.92900085449219,44.25 90.92900085449219,44.25 C90.92900085449219,44.25 21.86400032043457,64.91100311279297 21.86400032043457,64.91100311279297" fill-opacity="1"></path></clipPath></defs><g clip-path="url(#__lottie_element_2)"><g clip-path="url(#__lottie_element_7)" transform="matrix(1.1625699996948242,0,0,1.1625699996948242,-2.626556396484375,9.373443603515625)" opacity="1" style="display: block;"><g clip-path="url(#__lottie_element_11)" transform="matrix(1,0,0,1,0,7)" opacity="1" style="display: block;"><g transform="matrix(1.0723700523376465,0,0,1.0723700523376465,45.904502868652344,31.818954467773438)" opacity="1" style="display: block;"><g opacity="1" transform="matrix(1,0,0,1,33.33300018310547,95.53199768066406)"><path fill="rgb(255,255,255)" fill-opacity="1" d=" M30.83099937438965,48.380001068115234 C30.83099937438965,48.380001068115234 30.83099937438965,58.72700119018555 30.83099937438965,58.72700119018555 C30.83099937438965,58.72700119018555 21.774999618530273,53.53200149536133 21.774999618530273,53.53200149536133 C21.774999618530273,53.53200149536133 21.774999618530273,46.9109992980957 21.774999618530273,46.9109992980957 C21.774999618530273,45.89099884033203 21.22800064086914,44.94900131225586 20.341999053955078,44.44200134277344 C20.341999053955078,44.44200134277344 -19.601999282836914,21.799999237060547 -19.601999282836914,21.799999237060547 C-20.513999938964844,21.283000946044922 -21.645999908447266,21.941999435424805 -21.645999908447266,22.989999771118164 C-21.645999908447266,22.989999771118164 -21.645999908447266,30.42300033569336 -21.645999908447266,30.42300033569336 C-21.645999908447266,30.42300033569336 -30.83300018310547,25.22800064086914 -30.83300018310547,25.22800064086914 C-30.83300018310547,25.22800064086914 -30.83300018310547,-58.72700119018555 -30.83300018310547,-58.72700119018555 C-30.83300018310547,-58.72700119018555 30.83300018310547,-58.387001037597656 30.83300018310547,-58.387001037597656 C30.83300018310547,-58.387001037597656 30.812000274658203,49.41899871826172 30.812000274658203,49.41899871826172"></path><path stroke-linecap="round" stroke-linejoin="round" fill-opacity="0" stroke="rgb(39,37,39)" stroke-opacity="1" stroke-width="1.5" d=" M30.83099937438965,48.380001068115234 C30.83099937438965,48.380001068115234 30.83099937438965,58.72700119018555 30.83099937438965,58.72700119018555 C30.83099937438965,58.72700119018555 21.774999618530273,53.53200149536133 21.774999618530273,53.53200149536133 C21.774999618530273,53.53200149536133 21.774999618530273,46.9109992980957 21.774999618530273,46.9109992980957 C21.774999618530273,45.89099884033203 21.22800064086914,44.94900131225586 20.341999053955078,44.44200134277344 C20.341999053955078,44.44200134277344 -19.601999282836914,21.799999237060547 -19.601999282836914,21.799999237060547 C-20.513999938964844,21.283000946044922 -21.645999908447266,21.941999435424805 -21.645999908447266,22.989999771118164 C-21.645999908447266,22.989999771118164 -21.645999908447266,30.42300033569336 -21.645999908447266,30.42300033569336 C-21.645999908447266,30.42300033569336 -30.83300018310547,25.22800064086914 -30.83300018310547,25.22800064086914 C-30.83300018310547,25.22800064086914 -30.83300018310547,-58.72700119018555 -30.83300018310547,-58.72700119018555 C-30.83300018310547,-58.72700119018555 30.83300018310547,-58.387001037597656 30.83300018310547,-58.387001037597656 C30.83300018310547,-58.387001037597656 30.812000274658203,49.41899871826172 30.812000274658203,49.41899871826172"></path></g><g opacity="1" transform="matrix(1,0,0,1,63.24100112915039,37.96500015258789)"><path fill="rgb(255,255,255)" fill-opacity="1" d=" M0.9240000247955322,35.46500015258789 C0.9240000247955322,35.46500015258789 -60.74100112915039,-1.1610000133514404 -60.74100112915039,-1.1610000133514404 C-60.74100112915039,-1.1610000133514404 -1.4600000381469727,-35.46500015258789 -1.4600000381469727,-35.46500015258789 C-1.4600000381469727,-35.46500015258789 60.74100112915039,1.4010000228881836 60.74100112915039,1.4010000228881836 C60.74100112915039,1.4010000228881836 0.9240000247955322,35.46500015258789 0.9240000247955322,35.46500015258789z"></path><path stroke-linecap="round" stroke-linejoin="round" fill-opacity="0" stroke="rgb(39,37,39)" stroke-opacity="1" stroke-width="1.5" d=" M0.9240000247955322,35.46500015258789 C0.9240000247955322,35.46500015258789 -60.74100112915039,-1.1610000133514404 -60.74100112915039,-1.1610000133514404 C-60.74100112915039,-1.1610000133514404 -1.4600000381469727,-35.46500015258789 -1.4600000381469727,-35.46500015258789 C-1.4600000381469727,-35.46500015258789 60.74100112915039,1.4010000228881836 60.74100112915039,1.4010000228881836 C60.74100112915039,1.4010000228881836 0.9240000247955322,35.46500015258789 0.9240000247955322,35.46500015258789z"></path></g><g opacity="1" transform="matrix(1,0,0,1,94.05400085449219,96.83100128173828)"><path fill="rgb(255,255,255)" fill-opacity="1" d=" M-29.908000946044922,-23.399999618530273 C-29.908000946044922,-23.399999618530273 29.90999984741211,-57.446998596191406 29.90999984741211,-57.446998596191406 C29.90999984741211,-57.446998596191406 29.738000869750977,24.475000381469727 29.738000869750977,24.475000381469727 C29.738000869750977,24.475000381469727 20.259000778198242,29.93400001525879 20.259000778198242,29.93400001525879 C20.259000778198242,29.93400001525879 20.259000778198242,23.114999771118164 20.259000778198242,23.114999771118164 C20.259000778198242,22.006000518798828 19.062999725341797,21.30900001525879 18.099000930786133,21.85700035095215 C18.099000930786133,21.85700035095215 11.746999740600586,25.479000091552734 11.746999740600586,25.479000091552734 C11.746999740600586,25.479000091552734 -18.841999053955078,42.922000885009766 -18.841999053955078,42.922000885009766 C-19.83300018310547,43.487998962402344 -20.44499969482422,44.54199981689453 -20.44499969482422,45.683998107910156 C-20.44499969482422,45.683998107910156 -20.44499969482422,52.005001068115234 -20.44499969482422,52.005001068115234 C-20.44499969482422,52.005001068115234 -29.90999984741211,57.446998596191406 -29.90999984741211,57.446998596191406 C-29.90999984741211,57.446998596191406 -29.908000946044922,-23.399999618530273 -29.908000946044922,-23.399999618530273z"></path><path stroke-linecap="round" stroke-linejoin="round" fill-opacity="0" stroke="rgb(39,37,39)" stroke-opacity="1" stroke-width="1.5" d=" M-29.908000946044922,-23.399999618530273 C-29.908000946044922,-23.399999618530273 29.90999984741211,-57.446998596191406 29.90999984741211,-57.446998596191406 C29.90999984741211,-57.446998596191406 29.738000869750977,24.475000381469727 29.738000869750977,24.475000381469727 C29.738000869750977,24.475000381469727 20.259000778198242,29.93400001525879 20.259000778198242,29.93400001525879 C20.259000778198242,29.93400001525879 20.259000778198242,23.114999771118164 20.259000778198242,23.114999771118164 C20.259000778198242,22.006000518798828 19.062999725341797,21.30900001525879 18.099000930786133,21.85700035095215 C18.099000930786133,21.85700035095215 11.746999740600586,25.479000091552734 11.746999740600586,25.479000091552734 C11.746999740600586,25.479000091552734 -18.841999053955078,42.922000885009766 -18.841999053955078,42.922000885009766 C-19.83300018310547,43.487998962402344 -20.44499969482422,44.54199981689453 -20.44499969482422,45.683998107910156 C-20.44499969482422,45.683998107910156 -20.44499969482422,52.005001068115234 -20.44499969482422,52.005001068115234 C-20.44499969482422,52.005001068115234 -29.90999984741211,57.446998596191406 -29.90999984741211,57.446998596191406 C-29.90999984741211,57.446998596191406 -29.908000946044922,-23.399999618530273 -29.908000946044922,-23.399999618530273z"></path></g><g opacity="1" transform="matrix(1,0,0,1,110.46099853515625,124.29199981689453)"><path fill="rgb(255,255,255)" fill-opacity="1" d=" M3.8519999980926514,2.4730000495910645 C3.8519999980926514,2.4730000495910645 -3.8519999980926514,-2.4730000495910645 -3.8519999980926514,-2.4730000495910645"></path><path stroke-linecap="round" stroke-linejoin="round" fill-opacity="0" stroke="rgb(39,37,39)" stroke-opacity="1" stroke-width="1.5" d=" M3.8519999980926514,2.4730000495910645 C3.8519999980926514,2.4730000495910645 -3.8519999980926514,-2.4730000495910645 -3.8519999980926514,-2.4730000495910645"></path></g><g opacity="1" transform="matrix(0.8849200010299683,0,0,0.8849200010299683,32.26599884033203,91.50399780273438)"><path fill="rgb(255,255,255)" fill-opacity="1" d=" M21.143999099731445,41.95800018310547 C21.143999099731445,41.95800018310547 -20.43400001525879,18.226999282836914 -20.43400001525879,18.226999282836914 C-23.381999969482422,16.378999710083008 -25.115999221801758,13.503999710083008 -25.125999450683594,10.17300033569336 C-25.125999450683594,10.17300033569336 -25.259000778198242,-39.558998107910156 -25.259000778198242,-39.558998107910156 C-25.264999389648438,-41.676998138427734 -22.972999572753906,-43.00299835205078 -21.138999938964844,-41.94300079345703 C-21.138999938964844,-41.94300079345703 20.614999771118164,-17.81999969482422 20.614999771118164,-17.81999969482422 C23.493000030517578,-16.156999588012695 25.264999389648438,-13.085000038146973 25.263999938964844,-9.76200008392334 C25.263999938964844,-9.76200008392334 25.250999450683594,39.57400131225586 25.250999450683594,39.57400131225586 C25.250999450683594,41.68299865722656 22.975000381469727,43.00299835205078 21.143999099731445,41.95800018310547z"></path><path stroke-linecap="round" stroke-linejoin="round" fill-opacity="0" stroke="rgb(39,37,39)" stroke-opacity="1" stroke-width="1.5" d=" M21.143999099731445,41.95800018310547 C21.143999099731445,41.95800018310547 -20.43400001525879,18.226999282836914 -20.43400001525879,18.226999282836914 C-23.381999969482422,16.378999710083008 -25.115999221801758,13.503999710083008 -25.125999450683594,10.17300033569336 C-25.125999450683594,10.17300033569336 -25.259000778198242,-39.558998107910156 -25.259000778198242,-39.558998107910156 C-25.264999389648438,-41.676998138427734 -22.972999572753906,-43.00299835205078 -21.138999938964844,-41.94300079345703 C-21.138999938964844,-41.94300079345703 20.614999771118164,-17.81999969482422 20.614999771118164,-17.81999969482422 C23.493000030517578,-16.156999588012695 25.264999389648438,-13.085000038146973 25.263999938964844,-9.76200008392334 C25.263999938964844,-9.76200008392334 25.250999450683594,39.57400131225586 25.250999450683594,39.57400131225586 C25.250999450683594,41.68299865722656 22.975000381469727,43.00299835205078 21.143999099731445,41.95800018310547z"></path></g><g opacity="1" transform="matrix(1,0,0,1,0,0)"><path fill="rgb(255,255,255)" fill-opacity="1" d=" M54,80.36499786376953 C54,80.36499786376953 14.425999641418457,103.3280029296875 14.425999641418457,103.3280029296875"></path><path stroke-linecap="butt" stroke-linejoin="miter" fill-opacity="0" stroke-miterlimit="4" stroke="rgb(39,37,39)" stroke-opacity="1" stroke-width="1.5" d=" M54,80.36499786376953 C54,80.36499786376953 14.425999641418457,103.3280029296875 14.425999641418457,103.3280029296875"></path></g></g><g transform="matrix(1.0723700523376465,0,0,0.9456899762153625,53.52959442138672,87.97154235839844)" opacity="1" style="display: block;"><g opacity="1" transform="matrix(0.9352200031280518,0,0,0.9352200031280518,6.083000183105469,33.78200149536133)"><path stroke-linecap="round" stroke-linejoin="round" fill-opacity="0" stroke="rgb(38,36,39)" stroke-opacity="1" stroke-width="5.5" d=" M-0.4830000102519989,21.648000717163086 C-0.49399998784065247,19.992000579833984 -0.45899999141693115,-12.204000473022461 -0.515999972820282,-23.554000854492188 C-0.5509999990463257,-30.57699966430664 1.6119999885559082,-30.312999725341797 1.6100000143051147,-30.243999481201172 C1.6699999570846558,-30.246999740600586 -0.9409999847412109,-31.959999084472656 -0.9409999847412109,-31.959999084472656 C-2.1549999713897705,-31.833999633789062 -3.4100000858306885,-29.700000762939453 -3.325000047683716,-29.60099983215332 C-3.325000047683716,-29.60099983215332 -3.443000078201294,21.895000457763672 -3.443000078201294,21.895000457763672 C-3.434000015258789,25.22599983215332 -2.865000009536743,27.176000595092773 0.08299999684095383,29.023000717163086 C0.08299999684095383,29.023000717163086 41.512001037597656,54.08000183105469 41.512001037597656,54.08000183105469 C41.492000579833984,54.07899856567383 41.70500183105469,49.849998474121094 41.46200180053711,49.900001525878906 C41.470001220703125,49.85599899291992 11.781000137329102,32.150001525878906 3.559999942779541,26.90999984741211 C1.4359999895095825,25.55699920654297 -0.4699999988079071,23.663999557495117 -0.4830000102519989,21.648000717163086z"></path></g></g><g transform="matrix(1,0,0,1,48,94.5)" opacity="1" style="display: block;"><g opacity="1" transform="matrix(1,0,0,1,0,0)"></g><g opacity="1" transform="matrix(1,0,0,1,0,0)"></g><g opacity="1" transform="matrix(1,0,0,1,29.033000946044922,37.10100173950195)"><path fill="rgb(255,255,255)" fill-opacity="1" d=" M22.576000213623047,-15.069000244140625 C22.576000213623047,-15.069000244140625 -19.926000595092773,-39.606998443603516 -19.926000595092773,-39.606998443603516 C-21.483999252319336,-40.50600051879883 -22.753000259399414,-40.439998626708984 -22.756999969482422,-38.650001525878906 C-22.756999969482422,-38.650001525878906 -22.895000457763672,10.192000389099121 -22.895000457763672,10.192000389099121 C-22.899999618530273,11.982000350952148 -21.638999938964844,14.163999557495117 -20.08099937438965,15.064000129699707 C-20.08099937438965,15.064000129699707 22.42099952697754,39.60300064086914 22.42099952697754,39.60300064086914 C23.983999252319336,40.50600051879883 25.253000259399414,39.784000396728516 25.257999420166016,37.99399948120117 C25.257999420166016,37.99399948120117 25.393999099731445,-10.192999839782715 25.393999099731445,-10.192999839782715 C25.39900016784668,-11.982999801635742 24.139999389648438,-14.166000366210938 22.576000213623047,-15.069000244140625z"></path><path stroke-linecap="round" stroke-linejoin="round" fill-opacity="0" stroke="rgb(39,37,40)" stroke-opacity="1" stroke-width="1.5" d=" M22.576000213623047,-15.069000244140625 C22.576000213623047,-15.069000244140625 -19.926000595092773,-39.606998443603516 -19.926000595092773,-39.606998443603516 C-21.483999252319336,-40.50600051879883 -22.753000259399414,-40.439998626708984 -22.756999969482422,-38.650001525878906 C-22.756999969482422,-38.650001525878906 -22.895000457763672,10.192000389099121 -22.895000457763672,10.192000389099121 C-22.899999618530273,11.982000350952148 -21.638999938964844,14.163999557495117 -20.08099937438965,15.064000129699707 C-20.08099937438965,15.064000129699707 22.42099952697754,39.60300064086914 22.42099952697754,39.60300064086914 C23.983999252319336,40.50600051879883 25.253000259399414,39.784000396728516 25.257999420166016,37.99399948120117 C25.257999420166016,37.99399948120117 25.393999099731445,-10.192999839782715 25.393999099731445,-10.192999839782715 C25.39900016784668,-11.982999801635742 24.139999389648438,-14.166000366210938 22.576000213623047,-15.069000244140625z"></path></g><g opacity="1" transform="matrix(0.9309700131416321,0,0,0.9842100143432617,32.542999267578125,34.86199951171875)"><path stroke-linecap="butt" stroke-linejoin="miter" fill-opacity="0" stroke-miterlimit="10" stroke="rgb(39,37,40)" stroke-opacity="1" stroke-width="5" d=" M24.20800018310547,-16.14699935913086 C24.20800018310547,-16.14699935913086 -19.131999969482422,-39.5369987487793 -19.131999969482422,-39.5369987487793 C-20.924999237060547,-40.40599822998047 -25.426000595092773,-39.45800018310547 -25.736000061035156,-38.435001373291016 C-25.736000061035156,-38.435001373291016 -25.64699935913086,-38.34700012207031 -24.795000076293945,-38.159000396728516 C-23.94300079345703,-37.97100067138672 19.979000091552734,-13.6899995803833 19.979000091552734,-13.6899995803833 C22.05699920654297,-12.638999938964844 22.981000900268555,-11.241999626159668 23.033000946044922,-8.814000129699707 C23.033000946044922,-8.814000129699707 22.91699981689453,37.6870002746582 22.91699981689453,37.6870002746582 C22.940000534057617,39.064998626708984 21.882999420166016,41.20899963378906 21.9060001373291,41.167999267578125 C21.9060001373291,41.167999267578125 24.88800048828125,40.20800018310547 25.83099937438965,39.375999450683594 C27.114999771118164,38.24300003051758 27.180999755859375,35.983001708984375 27.180999755859375,35.983001708984375 C27.134000778198242,35.83700180053711 27.025999069213867,-11.270999908447266 27.025999069213867,-11.270999908447266 C27.031999588012695,-13.060999870300293 25.770999908447266,-15.244000434875488 24.20800018310547,-16.14699935913086z"></path></g></g><g transform="matrix(1.064229965209961,0,0,1.064229965209961,49.951560974121094,84.04542541503906)" opacity="1" style="display: block;"><g opacity="1" transform="matrix(1,0,0,1,0,0)"><g opacity="1" transform="matrix(1,0,0,1,0,0)"><path stroke-linecap="round" stroke-linejoin="round" fill-opacity="0" stroke="rgb(39,37,40)" stroke-opacity="1" stroke-width="1.5" d=" M23.249000549316406,26.849000930786133 C23.249000549316406,26.849000930786133 23.249000549316406,28.67300033569336 23.249000549316406,28.67300033569336"></path></g><g opacity="1" transform="matrix(1,0,0,1,0,0)"><path stroke-linecap="round" stroke-linejoin="round" fill-opacity="0" stroke="rgb(39,37,40)" stroke-opacity="1" stroke-width="1.5" d=" M22.347000122070312,55.95399856567383 C22.347000122070312,55.95399856567383 22.347000122070312,57.77799987792969 22.347000122070312,57.77799987792969"></path></g><g opacity="1" transform="matrix(1,0,0,1,11.781000137329102,48.867000579833984)"><path stroke-linecap="round" stroke-linejoin="round" fill-opacity="0" stroke="rgb(39,37,40)" stroke-opacity="1" stroke-width="1.5" d=" M0.8180000185966492,-0.40400001406669617 C0.8180000185966492,-0.40400001406669617 -0.8180000185966492,0.4050000011920929 -0.8180000185966492,0.4050000011920929"></path></g><g opacity="1" transform="matrix(1,0,0,1,10.98900032043457,38.97800064086914)"><path stroke-linecap="round" stroke-linejoin="round" fill-opacity="0" stroke="rgb(39,37,40)" stroke-opacity="1" stroke-width="1.5" d=" M0.8379999995231628,0.3610000014305115 C0.8379999995231628,0.3610000014305115 -0.8379999995231628,-0.3610000014305115 -0.8379999995231628,-0.3610000014305115"></path></g><g opacity="1" transform="matrix(1,0,0,1,36.689998626708984,48.849998474121094)"><path stroke-linecap="round" stroke-linejoin="round" fill-opacity="0" stroke="rgb(39,37,40)" stroke-opacity="1" stroke-width="1.5" d=" M0.8420000076293945,0.3529999852180481 C0.8420000076293945,0.3529999852180481 -0.8420000076293945,-0.3529999852180481 -0.8420000076293945,-0.3529999852180481"></path></g><g opacity="1" transform="matrix(1,0,0,1,33.24599838256836,36.27799987792969)"><path stroke-linecap="round" stroke-linejoin="round" fill-opacity="0" stroke="rgb(39,37,40)" stroke-opacity="1" stroke-width="1.5" d=" M0.8180000185966492,-0.4050000011920929 C0.8180000185966492,-0.4050000011920929 -0.8180000185966492,0.4050000011920929 -0.8180000185966492,0.4050000011920929"></path></g><g opacity="1" transform="matrix(1,0,0,1,13.45199966430664,31.259000778198242)"><path stroke-linecap="round" stroke-linejoin="round" fill-opacity="0" stroke="rgb(39,37,40)" stroke-opacity="1" stroke-width="1.5" d=" M0.6449999809265137,0.6449999809265137 C0.6449999809265137,0.6449999809265137 -0.6449999809265137,-0.6449999809265137 -0.6449999809265137,-0.6449999809265137"></path></g><g opacity="1" transform="matrix(1,0,0,1,32.132999420166016,57.084999084472656)"><path stroke-linecap="round" stroke-linejoin="round" fill-opacity="0" stroke="rgb(39,37,40)" stroke-opacity="1" stroke-width="1.5" d=" M0.4909999966621399,0.7680000066757202 C0.4909999966621399,0.7680000066757202 -0.4909999966621399,-0.7689999938011169 -0.4909999966621399,-0.7689999938011169"></path></g><g opacity="1" transform="matrix(1,0,0,1,24.30900001525879,42.64899826049805)"><path fill="rgb(255,255,255)" fill-opacity="1" d=" M0.028999999165534973,-11.03600025177002 C-5.267000198364258,-14.093000411987305 -9.586999893188477,-11.626999855041504 -9.604999542236328,-5.546000003814697 C-9.621000289916992,0.5389999747276306 -5.328999996185303,7.978000164031982 -0.032999999821186066,11.03499984741211 C5.26200008392334,14.093000411987305 9.586000442504883,11.628999710083008 9.602999687194824,5.544000148773193 C9.621000289916992,-0.5370000004768372 5.324999809265137,-7.978000164031982 0.028999999165534973,-11.03600025177002z"></path><path stroke-linecap="round" stroke-linejoin="round" fill-opacity="0" stroke="rgb(39,37,40)" stroke-opacity="1" stroke-width="1.5" d=" M0.028999999165534973,-11.03600025177002 C-5.267000198364258,-14.093000411987305 -9.586999893188477,-11.626999855041504 -9.604999542236328,-5.546000003814697 C-9.621000289916992,0.5389999747276306 -5.328999996185303,7.978000164031982 -0.032999999821186066,11.03499984741211 C5.26200008392334,14.093000411987305 9.586000442504883,11.628999710083008 9.602999687194824,5.544000148773193 C9.621000289916992,-0.5370000004768372 5.324999809265137,-7.978000164031982 0.028999999165534973,-11.03600025177002z"></path></g><g opacity="1" transform="matrix(1,0,0,1,21.496000289916992,44.4900016784668)"><path fill="rgb(39,37,40)" fill-opacity="1" d=" M2.2269999980926514,11.456000328063965 C2.2269999980926514,11.456000328063965 4.080999851226807,10.343999862670898 4.080999851226807,10.343999862670898 C4.080999851226807,10.343999862670898 6.968999862670898,8.576000213623047 6.968999862670898,8.576000213623047 C8.354000091552734,7.605999946594238 8.984000205993652,5.993000030517578 8.989999771118164,3.6710000038146973 C9.003999710083008,-1.3700000047683716 5.442999839782715,-7.539000034332275 1.0529999732971191,-10.072999954223633 C-1.093000054359436,-11.314000129699707 -3.0480000972747803,-11.456999778747559 -4.486000061035156,-10.690999984741211 C-4.486000061035156,-10.690999984741211 -7.271999835968018,-9.010000228881836 -7.271999835968018,-9.010000228881836 C-7.271999835968018,-9.010000228881836 -9.003000259399414,-7.951000213623047 -9.003000259399414,-7.951000213623047"></path><path stroke-linecap="round" stroke-linejoin="round" fill-opacity="0" stroke="rgb(39,37,40)" stroke-opacity="1" stroke-width="1.5" d=" M2.2269999980926514,11.456000328063965 C2.2269999980926514,11.456000328063965 4.080999851226807,10.343999862670898 4.080999851226807,10.343999862670898 C4.080999851226807,10.343999862670898 6.968999862670898,8.576000213623047 6.968999862670898,8.576000213623047 C8.354000091552734,7.605999946594238 8.984000205993652,5.993000030517578 8.989999771118164,3.6710000038146973 C9.003999710083008,-1.3700000047683716 5.442999839782715,-7.539000034332275 1.0529999732971191,-10.072999954223633 C-1.093000054359436,-11.314000129699707 -3.0480000972747803,-11.456999778747559 -4.486000061035156,-10.690999984741211 C-4.486000061035156,-10.690999984741211 -7.271999835968018,-9.010000228881836 -7.271999835968018,-9.010000228881836 C-7.271999835968018,-9.010000228881836 -9.003000259399414,-7.951000213623047 -9.003000259399414,-7.951000213623047"></path></g><g opacity="1" transform="matrix(1,0,0,1,18.53499984741211,46.029998779296875)"><path fill="rgb(255,255,255)" fill-opacity="1" d=" M0.02500000037252903,-9.14799976348877 C-4.364999771118164,-11.682999610900879 -7.946000099182129,-9.63700008392334 -7.960000038146973,-4.5960001945495605 C-7.974999904632568,0.4480000138282776 -4.415999889373779,6.61299991607666 -0.027000000700354576,9.14799976348877 C4.36299991607666,11.682000160217285 7.947999954223633,9.640000343322754 7.961999893188477,4.5960001945495605 C7.97599983215332,-0.4449999928474426 4.415999889373779,-6.613999843597412 0.02500000037252903,-9.14799976348877z"></path><path stroke-linecap="round" stroke-linejoin="round" fill-opacity="0" stroke="rgb(39,37,40)" stroke-opacity="1" stroke-width="1.5" d=" M0.02500000037252903,-9.14799976348877 C-4.364999771118164,-11.682999610900879 -7.946000099182129,-9.63700008392334 -7.960000038146973,-4.5960001945495605 C-7.974999904632568,0.4480000138282776 -4.415999889373779,6.61299991607666 -0.027000000700354576,9.14799976348877 C4.36299991607666,11.682000160217285 7.947999954223633,9.640000343322754 7.961999893188477,4.5960001945495605 C7.97599983215332,-0.4449999928474426 4.415999889373779,-6.613999843597412 0.02500000037252903,-9.14799976348877z"></path></g></g></g><g clip-path="url(#__lottie_element_15)" transform="matrix(0.9749129414558411,-0.22258657217025757,0.22258657217025757,0.9749129414558411,79,52.5)" opacity="1" style="display: block;"><g opacity="1" transform="matrix(1,0,0,1,-173.47799682617188,-45.75200653076172)"><g opacity="1" transform="matrix(1,0,0,1,267.47198486328125,210.88600158691406)"><path stroke-linecap="butt" stroke-linejoin="miter" fill-opacity="0" stroke-miterlimit="10" stroke="rgb(39,37,40)" stroke-opacity="1" stroke-width="0.75" d=" M-68.04299926757812,83.21900177001953 C-68.04299926757812,83.21900177001953 68.04299926757812,-83.21900177001953 68.04299926757812,-83.21900177001953"></path></g><g opacity="1" transform="matrix(1,0,0,1,273.52398681640625,210.39500427246094)"><path stroke-linecap="butt" stroke-linejoin="miter" fill-opacity="0" stroke-miterlimit="10" stroke="rgb(39,37,40)" stroke-opacity="1" stroke-width="0.75" d=" M-68.04299926757812,83.21900177001953 C-68.04299926757812,83.21900177001953 68.04299926757812,-83.21900177001953 68.04299926757812,-83.21900177001953"></path></g><g opacity="1" transform="matrix(1,0,0,1,283.1990051269531,205.62899780273438)"><path stroke-linecap="butt" stroke-linejoin="miter" fill-opacity="0" stroke-miterlimit="10" stroke="rgb(39,37,40)" stroke-opacity="1" stroke-width="0.75" d=" M-68.04299926757812,83.21900177001953 C-68.04299926757812,83.21900177001953 68.04199981689453,-83.21900177001953 68.04199981689453,-83.21900177001953"></path></g><g opacity="1" transform="matrix(1,0,0,1,289.25299072265625,205.13800048828125)"><path stroke-linecap="butt" stroke-linejoin="miter" fill-opacity="0" stroke-miterlimit="10" stroke="rgb(39,37,40)" stroke-opacity="1" stroke-width="0.75" d=" M-68.04299926757812,83.21900177001953 C-68.04299926757812,83.21900177001953 68.04299926757812,-83.21900177001953 68.04299926757812,-83.21900177001953"></path></g><g opacity="1" transform="matrix(1,0,0,1,298.07501220703125,201.02000427246094)"><path stroke-linecap="butt" stroke-linejoin="miter" fill-opacity="0" stroke-miterlimit="10" stroke="rgb(39,37,40)" stroke-opacity="1" stroke-width="0.75" d=" M-68.04299926757812,83.21900177001953 C-68.04299926757812,83.21900177001953 68.04199981689453,-83.21900177001953 68.04199981689453,-83.21900177001953"></path></g><g opacity="1" transform="matrix(1,0,0,1,304.12799072265625,200.5290069580078)"><path stroke-linecap="butt" stroke-linejoin="miter" fill-opacity="0" stroke-miterlimit="10" stroke="rgb(39,37,40)" stroke-opacity="1" stroke-width="0.75" d=" M-68.04199981689453,83.21900177001953 C-68.04199981689453,83.21900177001953 68.04299926757812,-83.21900177001953 68.04299926757812,-83.21900177001953"></path></g><g opacity="1" transform="matrix(1,0,0,1,203.8780059814453,178.18099975585938)"><path stroke-linecap="butt" stroke-linejoin="miter" fill-opacity="0" stroke-miterlimit="10" stroke="rgb(39,37,40)" stroke-opacity="1" stroke-width="0.75" d=" M-68.04299926757812,83.21900177001953 C-68.04299926757812,83.21900177001953 68.04299926757812,-83.21900177001953 68.04299926757812,-83.21900177001953"></path></g><g opacity="1" transform="matrix(1,0,0,1,209.93099975585938,177.69000244140625)"><path stroke-linecap="butt" stroke-linejoin="miter" fill-opacity="0" stroke-miterlimit="10" stroke="rgb(39,37,40)" stroke-opacity="1" stroke-width="0.75" d=" M-68.04299926757812,83.21900177001953 C-68.04299926757812,83.21900177001953 68.04299926757812,-83.21900177001953 68.04299926757812,-83.21900177001953"></path></g><g opacity="1" transform="matrix(1,0,0,1,219.60499572753906,172.9239959716797)"><path stroke-linecap="butt" stroke-linejoin="miter" fill-opacity="0" stroke-miterlimit="10" stroke="rgb(39,37,40)" stroke-opacity="1" stroke-width="0.75" d=" M-68.04199981689453,83.21900177001953 C-68.04199981689453,83.21900177001953 68.04299926757812,-83.21900177001953 68.04299926757812,-83.21900177001953"></path></g><g opacity="1" transform="matrix(1,0,0,1,225.65899658203125,172.43299865722656)"><path stroke-linecap="butt" stroke-linejoin="miter" fill-opacity="0" stroke-miterlimit="10" stroke="rgb(39,37,40)" stroke-opacity="1" stroke-width="0.75" d=" M-68.04299926757812,83.21900177001953 C-68.04299926757812,83.21900177001953 68.04299926757812,-83.21900177001953 68.04299926757812,-83.21900177001953"></path></g><g opacity="1" transform="matrix(1,0,0,1,234.47999572753906,168.31500244140625)"><path stroke-linecap="butt" stroke-linejoin="miter" fill-opacity="0" stroke-miterlimit="10" stroke="rgb(39,37,40)" stroke-opacity="1" stroke-width="0.75" d=" M-68.04199981689453,83.21900177001953 C-68.04199981689453,83.21900177001953 68.04299926757812,-83.21900177001953 68.04299926757812,-83.21900177001953"></path></g><g opacity="1" transform="matrix(1,0,0,1,240.53399658203125,167.82400512695312)"><path stroke-linecap="butt" stroke-linejoin="miter" fill-opacity="0" stroke-miterlimit="10" stroke="rgb(39,37,40)" stroke-opacity="1" stroke-width="0.75" d=" M-68.04199981689453,83.21900177001953 C-68.04199981689453,83.21900177001953 68.04199981689453,-83.21900177001953 68.04199981689453,-83.21900177001953"></path></g><g opacity="1" transform="matrix(1,0,0,1,250.20899963378906,163.0570068359375)"><path stroke-linecap="butt" stroke-linejoin="miter" fill-opacity="0" stroke-miterlimit="10" stroke="rgb(39,37,40)" stroke-opacity="1" stroke-width="0.75" d=" M-68.04299926757812,83.21900177001953 C-68.04299926757812,83.21900177001953 68.04299926757812,-83.22000122070312 68.04299926757812,-83.22000122070312"></path></g><g opacity="1" transform="matrix(1,0,0,1,256.2619934082031,162.56700134277344)"><path stroke-linecap="butt" stroke-linejoin="miter" fill-opacity="0" stroke-miterlimit="10" stroke="rgb(39,37,40)" stroke-opacity="1" stroke-width="0.75" d=" M-68.04299926757812,83.21900177001953 C-68.04299926757812,83.21900177001953 68.04199981689453,-83.21900177001953 68.04199981689453,-83.21900177001953"></path></g><g opacity="1" transform="matrix(1,0,0,1,268.6409912109375,154.12100219726562)"><path stroke-linecap="butt" stroke-linejoin="miter" fill-opacity="0" stroke-miterlimit="10" stroke="rgb(39,37,40)" stroke-opacity="1" stroke-width="0.75" d=" M-68.04299926757812,83.21900177001953 C-68.04299926757812,83.21900177001953 68.04199981689453,-83.21900177001953 68.04199981689453,-83.21900177001953"></path></g><g opacity="1" transform="matrix(1,0,0,1,274.6940002441406,153.6300048828125)"><path stroke-linecap="butt" stroke-linejoin="miter" fill-opacity="0" stroke-miterlimit="10" stroke="rgb(39,37,40)" stroke-opacity="1" stroke-width="0.75" d=" M-68.04299926757812,83.21900177001953 C-68.04299926757812,83.21900177001953 68.04299926757812,-83.21900177001953 68.04299926757812,-83.21900177001953"></path></g><g opacity="1" transform="matrix(1,0,0,1,284.3689880371094,148.86399841308594)"><path stroke-linecap="butt" stroke-linejoin="miter" fill-opacity="0" stroke-miterlimit="10" stroke="rgb(39,37,40)" stroke-opacity="1" stroke-width="0.75" d=" M-68.04199981689453,83.21900177001953 C-68.04199981689453,83.21900177001953 68.04299926757812,-83.21900177001953 68.04299926757812,-83.21900177001953"></path></g><g opacity="1" transform="matrix(1,0,0,1,290.4219970703125,148.3719940185547)"><path stroke-linecap="butt" stroke-linejoin="miter" fill-opacity="0" stroke-miterlimit="10" stroke="rgb(39,37,40)" stroke-opacity="1" stroke-width="0.75" d=" M-68.04299926757812,83.21900177001953 C-68.04299926757812,83.21900177001953 68.04199981689453,-83.21900177001953 68.04199981689453,-83.21900177001953"></path></g><g opacity="1" transform="matrix(1,0,0,1,299.2439880371094,144.2550048828125)"><path stroke-linecap="butt" stroke-linejoin="miter" fill-opacity="0" stroke-miterlimit="10" stroke="rgb(39,37,40)" stroke-opacity="1" stroke-width="0.75" d=" M-68.04299926757812,83.21900177001953 C-68.04299926757812,83.21900177001953 68.04299926757812,-83.21900177001953 68.04299926757812,-83.21900177001953"></path></g><g opacity="1" transform="matrix(1,0,0,1,305.2969970703125,143.76400756835938)"><path stroke-linecap="butt" stroke-linejoin="miter" fill-opacity="0" stroke-miterlimit="10" stroke="rgb(39,37,40)" stroke-opacity="1" stroke-width="0.75" d=" M-68.04299926757812,83.21900177001953 C-68.04299926757812,83.21900177001953 68.04199981689453,-83.21900177001953 68.04199981689453,-83.21900177001953"></path></g><g opacity="1" transform="matrix(1,0,0,1,132.01199340820312,155.9739990234375)"><path stroke-linecap="butt" stroke-linejoin="miter" fill-opacity="0" stroke-miterlimit="10" stroke="rgb(39,37,40)" stroke-opacity="1" stroke-width="0.75" d=" M-68.04299926757812,83.21900177001953 C-68.04299926757812,83.21900177001953 68.04299926757812,-83.21900177001953 68.04299926757812,-83.21900177001953"></path></g><g opacity="1" transform="matrix(1,0,0,1,138.06500244140625,155.48300170898438)"><path stroke-linecap="butt" stroke-linejoin="miter" fill-opacity="0" stroke-miterlimit="10" stroke="rgb(39,37,40)" stroke-opacity="1" stroke-width="0.75" d=" M-68.04299926757812,83.21900177001953 C-68.04299926757812,83.21900177001953 68.04199981689453,-83.21900177001953 68.04199981689453,-83.21900177001953"></path></g><g opacity="1" transform="matrix(1,0,0,1,147.74000549316406,150.7169952392578)"><path stroke-linecap="butt" stroke-linejoin="miter" fill-opacity="0" stroke-miterlimit="10" stroke="rgb(39,37,40)" stroke-opacity="1" stroke-width="0.75" d=" M-68.04199981689453,83.21900177001953 C-68.04199981689453,83.21900177001953 68.04299926757812,-83.21900177001953 68.04299926757812,-83.21900177001953"></path></g><g opacity="1" transform="matrix(1,0,0,1,153.79299926757812,150.2259979248047)"><path stroke-linecap="butt" stroke-linejoin="miter" fill-opacity="0" stroke-miterlimit="10" stroke="rgb(39,37,40)" stroke-opacity="1" stroke-width="0.75" d=" M-68.04299926757812,83.21900177001953 C-68.04299926757812,83.21900177001953 68.04299926757812,-83.21900177001953 68.04299926757812,-83.21900177001953"></path></g><g opacity="1" transform="matrix(1,0,0,1,162.61500549316406,146.10800170898438)"><path stroke-linecap="butt" stroke-linejoin="miter" fill-opacity="0" stroke-miterlimit="10" stroke="rgb(39,37,40)" stroke-opacity="1" stroke-width="0.75" d=" M-68.04299926757812,83.21900177001953 C-68.04299926757812,83.21900177001953 68.04299926757812,-83.21900177001953 68.04299926757812,-83.21900177001953"></path></g><g opacity="1" transform="matrix(1,0,0,1,168.66799926757812,145.61700439453125)"><path stroke-linecap="butt" stroke-linejoin="miter" fill-opacity="0" stroke-miterlimit="10" stroke="rgb(39,37,40)" stroke-opacity="1" stroke-width="0.75" d=" M-68.04299926757812,83.21900177001953 C-68.04299926757812,83.21900177001953 68.04299926757812,-83.21900177001953 68.04299926757812,-83.21900177001953"></path></g><g opacity="1" transform="matrix(1,0,0,1,178.34300231933594,140.8509979248047)"><path stroke-linecap="butt" stroke-linejoin="miter" fill-opacity="0" stroke-miterlimit="10" stroke="rgb(39,37,40)" stroke-opacity="1" stroke-width="0.75" d=" M-68.04199981689453,83.21900177001953 C-68.04199981689453,83.21900177001953 68.04199981689453,-83.21900177001953 68.04199981689453,-83.21900177001953"></path></g><g opacity="1" transform="matrix(1,0,0,1,184.39599609375,140.36000061035156)"><path stroke-linecap="butt" stroke-linejoin="miter" fill-opacity="0" stroke-miterlimit="10" stroke="rgb(39,37,40)" stroke-opacity="1" stroke-width="0.75" d=" M-68.04299926757812,83.21900177001953 C-68.04299926757812,83.21900177001953 68.04199981689453,-83.21900177001953 68.04199981689453,-83.21900177001953"></path></g><g opacity="1" transform="matrix(1,0,0,1,196.77499389648438,131.91400146484375)"><path stroke-linecap="butt" stroke-linejoin="miter" fill-opacity="0" stroke-miterlimit="10" stroke="rgb(39,37,40)" stroke-opacity="1" stroke-width="0.75" d=" M-68.04299926757812,83.21900177001953 C-68.04299926757812,83.21900177001953 68.04299926757812,-83.21900177001953 68.04299926757812,-83.21900177001953"></path></g><g opacity="1" transform="matrix(1,0,0,1,202.8280029296875,131.42300415039062)"><path stroke-linecap="butt" stroke-linejoin="miter" fill-opacity="0" stroke-miterlimit="10" stroke="rgb(39,37,40)" stroke-opacity="1" stroke-width="0.75" d=" M-68.04299926757812,83.21900177001953 C-68.04299926757812,83.21900177001953 68.04299926757812,-83.21900177001953 68.04299926757812,-83.21900177001953"></path></g><g opacity="1" transform="matrix(1,0,0,1,212.5030059814453,126.65699768066406)"><path stroke-linecap="butt" stroke-linejoin="miter" fill-opacity="0" stroke-miterlimit="10" stroke="rgb(39,37,40)" stroke-opacity="1" stroke-width="0.75" d=" M-68.04199981689453,83.21900177001953 C-68.04199981689453,83.21900177001953 68.04299926757812,-83.21900177001953 68.04299926757812,-83.21900177001953"></path></g><g opacity="1" transform="matrix(1,0,0,1,218.5570068359375,126.16600036621094)"><path stroke-linecap="butt" stroke-linejoin="miter" fill-opacity="0" stroke-miterlimit="10" stroke="rgb(39,37,40)" stroke-opacity="1" stroke-width="0.75" d=" M-68.04299926757812,83.21900177001953 C-68.04299926757812,83.21900177001953 68.04299926757812,-83.21900177001953 68.04299926757812,-83.21900177001953"></path></g><g opacity="1" transform="matrix(1,0,0,1,227.3780059814453,122.0479965209961)"><path stroke-linecap="butt" stroke-linejoin="miter" fill-opacity="0" stroke-miterlimit="10" stroke="rgb(39,37,40)" stroke-opacity="1" stroke-width="0.75" d=" M-68.04199981689453,83.21900177001953 C-68.04199981689453,83.21900177001953 68.04299926757812,-83.21900177001953 68.04299926757812,-83.21900177001953"></path></g><g opacity="1" transform="matrix(1,0,0,1,233.43099975585938,121.55699920654297)"><path stroke-linecap="butt" stroke-linejoin="miter" fill-opacity="0" stroke-miterlimit="10" stroke="rgb(39,37,40)" stroke-opacity="1" stroke-width="0.75" d=" M-68.04199981689453,83.21900177001953 C-68.04199981689453,83.21900177001953 68.04199981689453,-83.21900177001953 68.04199981689453,-83.21900177001953"></path></g><g opacity="1" transform="matrix(1,0,0,1,243.10699462890625,116.79100036621094)"><path stroke-linecap="butt" stroke-linejoin="miter" fill-opacity="0" stroke-miterlimit="10" stroke="rgb(39,37,40)" stroke-opacity="1" stroke-width="0.75" d=" M-68.04199981689453,83.21900177001953 C-68.04199981689453,83.21900177001953 68.04199981689453,-83.21900177001953 68.04199981689453,-83.21900177001953"></path></g><g opacity="1" transform="matrix(1,0,0,1,249.15899658203125,116.30000305175781)"><path stroke-linecap="butt" stroke-linejoin="miter" fill-opacity="0" stroke-miterlimit="10" stroke="rgb(39,37,40)" stroke-opacity="1" stroke-width="0.75" d=" M-68.04299926757812,83.21900177001953 C-68.04299926757812,83.21900177001953 68.04299926757812,-83.21900177001953 68.04299926757812,-83.21900177001953"></path></g><g opacity="1" transform="matrix(1,0,0,1,68.41799926757812,123.26899719238281)"><path stroke-linecap="butt" stroke-linejoin="miter" fill-opacity="0" stroke-miterlimit="10" stroke="rgb(39,37,40)" stroke-opacity="1" stroke-width="0.75" d=" M-68.04299926757812,83.21900177001953 C-68.04299926757812,83.21900177001953 68.04299926757812,-83.21900177001953 68.04299926757812,-83.21900177001953"></path></g><g opacity="1" transform="matrix(1,0,0,1,74.47100067138672,122.77799987792969)"><path stroke-linecap="butt" stroke-linejoin="miter" fill-opacity="0" stroke-miterlimit="10" stroke="rgb(39,37,40)" stroke-opacity="1" stroke-width="0.75" d=" M-68.04299926757812,83.21900177001953 C-68.04299926757812,83.21900177001953 68.04299926757812,-83.21900177001953 68.04299926757812,-83.21900177001953"></path></g><g opacity="1" transform="matrix(1,0,0,1,84.14600372314453,118.01200103759766)"><path stroke-linecap="butt" stroke-linejoin="miter" fill-opacity="0" stroke-miterlimit="10" stroke="rgb(39,37,40)" stroke-opacity="1" stroke-width="0.75" d=" M-68.04299926757812,83.21900177001953 C-68.04299926757812,83.21900177001953 68.04199981689453,-83.21900177001953 68.04199981689453,-83.21900177001953"></path></g><g opacity="1" transform="matrix(1,0,0,1,90.1989974975586,117.52100372314453)"><path stroke-linecap="butt" stroke-linejoin="miter" fill-opacity="0" stroke-miterlimit="10" stroke="rgb(39,37,40)" stroke-opacity="1" stroke-width="0.75" d=" M-68.04299926757812,83.21900177001953 C-68.04299926757812,83.21900177001953 68.04299926757812,-83.21900177001953 68.04299926757812,-83.21900177001953"></path></g><g opacity="1" transform="matrix(1,0,0,1,99.02100372314453,113.40299987792969)"><path stroke-linecap="butt" stroke-linejoin="miter" fill-opacity="0" stroke-miterlimit="10" stroke="rgb(39,37,40)" stroke-opacity="1" stroke-width="0.75" d=" M-68.04299926757812,83.21900177001953 C-68.04299926757812,83.21900177001953 68.04199981689453,-83.21900177001953 68.04199981689453,-83.21900177001953"></path></g><g opacity="1" transform="matrix(1,0,0,1,105.0739974975586,112.91100311279297)"><path stroke-linecap="butt" stroke-linejoin="miter" fill-opacity="0" stroke-miterlimit="10" stroke="rgb(39,37,40)" stroke-opacity="1" stroke-width="0.75" d=" M-68.04299926757812,83.21900177001953 C-68.04299926757812,83.21900177001953 68.04299926757812,-83.21900177001953 68.04299926757812,-83.21900177001953"></path></g><g opacity="1" transform="matrix(1,0,0,1,114.7490005493164,108.14600372314453)"><path stroke-linecap="butt" stroke-linejoin="miter" fill-opacity="0" stroke-miterlimit="10" stroke="rgb(39,37,40)" stroke-opacity="1" stroke-width="0.75" d=" M-68.04299926757812,83.21900177001953 C-68.04299926757812,83.21900177001953 68.04199981689453,-83.21900177001953 68.04199981689453,-83.21900177001953"></path></g><g opacity="1" transform="matrix(1,0,0,1,120.802001953125,107.65499877929688)"><path stroke-linecap="butt" stroke-linejoin="miter" fill-opacity="0" stroke-miterlimit="10" stroke="rgb(39,37,40)" stroke-opacity="1" stroke-width="0.75" d=" M-68.04299926757812,83.21900177001953 C-68.04299926757812,83.21900177001953 68.04299926757812,-83.21900177001953 68.04299926757812,-83.21900177001953"></path></g><g opacity="1" transform="matrix(1,0,0,1,133.18099975585938,99.20899963378906)"><path stroke-linecap="butt" stroke-linejoin="miter" fill-opacity="0" stroke-miterlimit="10" stroke="rgb(39,37,40)" stroke-opacity="1" stroke-width="0.75" d=" M-68.04299926757812,83.21900177001953 C-68.04299926757812,83.21900177001953 68.04199981689453,-83.21900177001953 68.04199981689453,-83.21900177001953"></path></g><g opacity="1" transform="matrix(1,0,0,1,139.23399353027344,98.71800231933594)"><path stroke-linecap="butt" stroke-linejoin="miter" fill-opacity="0" stroke-miterlimit="10" stroke="rgb(39,37,40)" stroke-opacity="1" stroke-width="0.75" d=" M-68.04299926757812,83.21900177001953 C-68.04299926757812,83.21900177001953 68.04299926757812,-83.21900177001953 68.04299926757812,-83.21900177001953"></path></g><g opacity="1" transform="matrix(1,0,0,1,148.91000366210938,93.95099639892578)"><path stroke-linecap="butt" stroke-linejoin="miter" fill-opacity="0" stroke-miterlimit="10" stroke="rgb(39,37,40)" stroke-opacity="1" stroke-width="0.75" d=" M-68.04299926757812,83.21900177001953 C-68.04299926757812,83.21900177001953 68.04299926757812,-83.21900177001953 68.04299926757812,-83.21900177001953"></path></g><g opacity="1" transform="matrix(1,0,0,1,154.96299743652344,93.45999908447266)"><path stroke-linecap="butt" stroke-linejoin="miter" fill-opacity="0" stroke-miterlimit="10" stroke="rgb(39,37,40)" stroke-opacity="1" stroke-width="0.75" d=" M-68.04299926757812,83.21900177001953 C-68.04299926757812,83.21900177001953 68.04299926757812,-83.21900177001953 68.04299926757812,-83.21900177001953"></path></g><g opacity="1" transform="matrix(1,0,0,1,163.78399658203125,89.34300231933594)"><path stroke-linecap="butt" stroke-linejoin="miter" fill-opacity="0" stroke-miterlimit="10" stroke="rgb(39,37,40)" stroke-opacity="1" stroke-width="0.75" d=" M-68.04299926757812,83.21900177001953 C-68.04299926757812,83.21900177001953 68.04299926757812,-83.21900177001953 68.04299926757812,-83.21900177001953"></path></g><g opacity="1" transform="matrix(1,0,0,1,169.83700561523438,88.85199737548828)"><path stroke-linecap="butt" stroke-linejoin="miter" fill-opacity="0" stroke-miterlimit="10" stroke="rgb(39,37,40)" stroke-opacity="1" stroke-width="0.75" d=" M-68.04199981689453,83.21900177001953 C-68.04199981689453,83.21900177001953 68.04299926757812,-83.21900177001953 68.04299926757812,-83.21900177001953"></path></g><g opacity="1" transform="matrix(1,0,0,1,179.51300048828125,84.08499908447266)"><path stroke-linecap="butt" stroke-linejoin="miter" fill-opacity="0" stroke-miterlimit="10" stroke="rgb(39,37,40)" stroke-opacity="1" stroke-width="0.75" d=" M-68.04299926757812,83.21900177001953 C-68.04299926757812,83.21900177001953 68.04199981689453,-83.21900177001953 68.04199981689453,-83.21900177001953"></path></g><g opacity="1" transform="matrix(1,0,0,1,185.56500244140625,83.59400177001953)"><path stroke-linecap="butt" stroke-linejoin="miter" fill-opacity="0" stroke-miterlimit="10" stroke="rgb(39,37,40)" stroke-opacity="1" stroke-width="0.75" d=" M-68.04199981689453,83.21900177001953 C-68.04199981689453,83.21900177001953 68.04299926757812,-83.21900177001953 68.04299926757812,-83.21900177001953"></path></g></g></g></g></g><g transform="matrix(1,0,0,1,131.375,129.125)" opacity="1" style="display: block;"><g opacity="1" transform="matrix(1,0,0,1,0,0)"><path fill="rgb(38,36,40)" fill-opacity="0" d=" M-66,82.75 C-66,82.75 -54.40599822998047,77.25 -54.40599822998047,77.25"></path><path stroke-linecap="butt" stroke-linejoin="miter" fill-opacity="0" stroke-miterlimit="4" stroke="rgb(38,36,40)" stroke-opacity="1" stroke-width="1.5" d=" M-66,82.75 C-66,82.75 -54.40599822998047,77.25 -54.40599822998047,77.25"></path></g></g></g></svg>