<svg xmlns="http://www.w3.org/2000/svg" xmlns:xlink="http://www.w3.org/1999/xlink" viewBox="0 0 260 260" width="260" height="260" preserveAspectRatio="xMidYMid slice" style="width: 100%; height: 100%; transform: translate3d(0px, 0px, 0px); content-visibility: visible;"><defs><clipPath id="__lottie_element_30"><rect width="260" height="260" x="0" y="0"></rect></clipPath><clipPath id="__lottie_element_32"><path d="M0,0 L53,0 L53,110 L0,110z"></path></clipPath><clipPath id="__lottie_element_39"><path d="M0,0 L53,0 L53,110 L0,110z"></path></clipPath><clipPath id="__lottie_element_46"><path d="M0,0 L203,0 L203,180 L0,180z"></path></clipPath><clipPath id="__lottie_element_53"><path fill="#ffffff" clip-rule="nonzero" d=" M1.8329999446868896,4.564000129699707 C1.8329999446868896,4.564000129699707 2.4579999446868896,82.75 2.4579999446868896,82.75 C2.4579999446868896,82.75 75.25,40.25 75.25,40.25 C75.25,40.25 76.25,-38.43600082397461 76.25,-38.43600082397461 C76.25,-38.43600082397461 1.8329999446868896,4.564000129699707 1.8329999446868896,4.564000129699707" fill-opacity="1"></path></clipPath></defs><g clip-path="url(#__lottie_element_30)"><g clip-path="url(#__lottie_element_46)" transform="matrix(1,0,0,1,27.5,73)" opacity="1" style="display: block;"><g transform="matrix(1.2285699844360352,0,0,1.2285699844360352,-64.01985931396484,-32.021766662597656)" opacity="1" style="display: block;"><g opacity="1" transform="matrix(1,0,0,1,137.63299560546875,68.16000366210938)"><path fill="rgb(255,255,255)" fill-opacity="1" d=" M-1.5470000505447388,34.534000396728516 C-1.5470000505447388,34.534000396728516 -59.35200119018555,1.1380000114440918 -59.35200119018555,1.1380000114440918 C-59.35200119018555,1.1380000114440918 1.3519999980926514,-34.534000396728516 1.3519999980926514,-34.534000396728516 C1.3519999980926514,-34.534000396728516 59.35200119018555,-0.6259999871253967 59.35200119018555,-0.6259999871253967 C59.35200119018555,-0.6259999871253967 -1.5470000505447388,34.534000396728516 -1.5470000505447388,34.534000396728516z"></path><path stroke-linecap="round" stroke-linejoin="round" fill-opacity="0" stroke="rgb(39,37,40)" stroke-opacity="1" stroke-width="1.5" d=" M-1.5470000505447388,34.534000396728516 C-1.5470000505447388,34.534000396728516 -59.35200119018555,1.1380000114440918 -59.35200119018555,1.1380000114440918 C-59.35200119018555,1.1380000114440918 1.3519999980926514,-34.534000396728516 1.3519999980926514,-34.534000396728516 C1.3519999980926514,-34.534000396728516 59.35200119018555,-0.6259999871253967 59.35200119018555,-0.6259999871253967 C59.35200119018555,-0.6259999871253967 -1.5470000505447388,34.534000396728516 -1.5470000505447388,34.534000396728516z"></path></g><g opacity="1" transform="matrix(1,0,0,1,97.2229995727539,52.58300018310547)"><path fill="rgb(255,255,255)" fill-opacity="1" d=" M-18.94099998474121,16.714000701904297 C-18.94099998474121,16.714000701904297 -41.87099838256836,18.18000030517578 -41.87099838256836,18.18000030517578 C-41.87099838256836,18.18000030517578 19.052000045776367,-16.81599998474121 19.052000045776367,-16.81599998474121 C19.052000045776367,-16.81599998474121 41.869998931884766,-18.993000030517578 41.869998931884766,-18.993000030517578 C41.869998931884766,-18.993000030517578 -18.94099998474121,16.714000701904297 -18.94099998474121,16.714000701904297z"></path><path stroke-linecap="round" stroke-linejoin="round" fill-opacity="0" stroke="rgb(39,37,40)" stroke-opacity="1" stroke-width="1.5" d=" M-18.94099998474121,16.714000701904297 C-18.94099998474121,16.714000701904297 -41.87099838256836,18.18000030517578 -41.87099838256836,18.18000030517578 C-41.87099838256836,18.18000030517578 19.052000045776367,-16.81599998474121 19.052000045776367,-16.81599998474121 C19.052000045776367,-16.81599998474121 41.869998931884766,-18.993000030517578 41.869998931884766,-18.993000030517578 C41.869998931884766,-18.993000030517578 -18.94099998474121,16.714000701904297 -18.94099998474121,16.714000701904297z"></path></g><g opacity="1" transform="matrix(1,0,0,1,167.08799743652344,96.5979995727539)"><path fill="rgb(255,255,255)" fill-opacity="1" d=" M9.076000213623047,-4.8520002365112305 C9.076000213623047,-4.8520002365112305 9.050999641418457,-3.868000030517578 9.050999641418457,-3.868000030517578 C9,-1.9570000171661377 7.954999923706055,-0.20999999344348907 6.294000148773193,0.7360000014305115 C6.294000148773193,0.7360000014305115 -5.058000087738037,7.201000213623047 -5.058000087738037,7.201000213623047 C-6.874000072479248,8.236000061035156 -9.130000114440918,6.921000003814697 -9.125,4.830999851226807 C-9.125,4.830999851226807 -9.12399959564209,4.046000003814697 -9.12399959564209,4.046000003814697 C-9.119999885559082,2.2790000438690186 -8.184000015258789,0.6460000276565552 -6.660999774932861,-0.25099998712539673 C-6.660999774932861,-0.25099998712539673 5.111999988555908,-7.186999797821045 5.111999988555908,-7.186999797821045 C6.890999794006348,-8.236000061035156 9.130000114440918,-6.916999816894531 9.076000213623047,-4.8520002365112305z"></path><path stroke-linecap="round" stroke-linejoin="round" fill-opacity="0" stroke="rgb(39,37,40)" stroke-opacity="1" stroke-width="1.5" d=" M9.076000213623047,-4.8520002365112305 C9.076000213623047,-4.8520002365112305 9.050999641418457,-3.868000030517578 9.050999641418457,-3.868000030517578 C9,-1.9570000171661377 7.954999923706055,-0.20999999344348907 6.294000148773193,0.7360000014305115 C6.294000148773193,0.7360000014305115 -5.058000087738037,7.201000213623047 -5.058000087738037,7.201000213623047 C-6.874000072479248,8.236000061035156 -9.130000114440918,6.921000003814697 -9.125,4.830999851226807 C-9.125,4.830999851226807 -9.12399959564209,4.046000003814697 -9.12399959564209,4.046000003814697 C-9.119999885559082,2.2790000438690186 -8.184000015258789,0.6460000276565552 -6.660999774932861,-0.25099998712539673 C-6.660999774932861,-0.25099998712539673 5.111999988555908,-7.186999797821045 5.111999988555908,-7.186999797821045 C6.890999794006348,-8.236000061035156 9.130000114440918,-6.916999816894531 9.076000213623047,-4.8520002365112305z"></path></g><g opacity="1" transform="matrix(1,0,0,1,136.6300048828125,67.50599670410156)"><path stroke-linecap="butt" stroke-linejoin="round" fill-opacity="0" stroke="rgb(39,37,40)" stroke-opacity="1" stroke-width="1.5" d=" M2.3559999465942383,-33.88100051879883 C2.3559999465942383,-33.88100051879883 2.3559999465942383,31.0939998626709 2.3559999465942383,31.0939998626709 C2.3559999465942383,31.0939998626709 -2.3550000190734863,33.88100051879883 -2.3550000190734863,33.88100051879883"></path></g><g opacity="1" transform="matrix(1,0,0,1,139.85899353027344,99.25299835205078)"><path stroke-linecap="butt" stroke-linejoin="round" fill-opacity="0" stroke="rgb(39,37,40)" stroke-opacity="1" stroke-width="1.5" d=" M-0.7319999933242798,-0.4690000116825104 C-0.7319999933242798,-0.4690000116825104 0.7319999933242798,0.4690000116825104 0.7319999933242798,0.4690000116825104"></path></g><g opacity="1" transform="matrix(1,0,0,1,107.18399810791016,118.43299865722656)"><path fill="rgb(255,255,255)" fill-opacity="1" d=" M28.884000778198242,49.1349983215332 C28.884000778198242,49.1349983215332 -28.715999603271484,16.257999420166016 -28.715999603271484,16.257999420166016 C-28.715999603271484,16.257999420166016 -28.902000427246094,-49.1349983215332 -28.902000427246094,-49.1349983215332 C-28.902000427246094,-49.1349983215332 28.902000427246094,-15.739999771118164 28.902000427246094,-15.739999771118164 C28.902000427246094,-15.739999771118164 28.884000778198242,49.1349983215332 28.884000778198242,49.1349983215332z"></path><path stroke-linecap="butt" stroke-linejoin="round" fill-opacity="0" stroke="rgb(39,37,40)" stroke-opacity="1" stroke-width="1.5" d=" M28.884000778198242,49.1349983215332 C28.884000778198242,49.1349983215332 -28.715999603271484,16.257999420166016 -28.715999603271484,16.257999420166016 C-28.715999603271484,16.257999420166016 -28.902000427246094,-49.1349983215332 -28.902000427246094,-49.1349983215332 C-28.902000427246094,-49.1349983215332 28.902000427246094,-15.739999771118164 28.902000427246094,-15.739999771118164 C28.902000427246094,-15.739999771118164 28.884000778198242,49.1349983215332 28.884000778198242,49.1349983215332z"></path></g><g opacity="1" transform="matrix(1,0,0,1,166.5260009765625,117.5510025024414)"><path fill="rgb(255,255,255)" fill-opacity="1" d=" M30.45800018310547,-50.018001556396484 C30.45800018310547,-50.018001556396484 30.29599952697754,15.097000122070312 30.29599952697754,15.097000122070312 C30.29599952697754,15.097000122070312 -30.45800018310547,50.018001556396484 -30.45800018310547,50.018001556396484 C-30.45800018310547,50.018001556396484 -30.44099998474121,-14.857000350952148 -30.44099998474121,-14.857000350952148 C-30.44099998474121,-14.857000350952148 30.45800018310547,-50.018001556396484 30.45800018310547,-50.018001556396484z"></path><path stroke-linecap="round" stroke-linejoin="round" fill-opacity="0" stroke="rgb(39,37,40)" stroke-opacity="1" stroke-width="1.5" d=" M30.45800018310547,-50.018001556396484 C30.45800018310547,-50.018001556396484 30.29599952697754,15.097000122070312 30.29599952697754,15.097000122070312 C30.29599952697754,15.097000122070312 -30.45800018310547,50.018001556396484 -30.45800018310547,50.018001556396484 C-30.45800018310547,50.018001556396484 -30.44099998474121,-14.857000350952148 -30.44099998474121,-14.857000350952148 C-30.44099998474121,-14.857000350952148 30.45800018310547,-50.018001556396484 30.45800018310547,-50.018001556396484z"></path></g></g><g clip-path="url(#__lottie_element_53)" transform="matrix(1,0,0,1,101.5,90)" opacity="1" style="display: block;"><g opacity="1" transform="matrix(1,0,0,1,-128.08200073242188,-112.55900573730469)"><g opacity="1" transform="matrix(1,0,0,1,192.41299438476562,162.90199279785156)"><path stroke-linecap="round" stroke-linejoin="round" fill-opacity="0" stroke="rgb(39,37,40)" stroke-opacity="1" stroke-width="1" d=" M-27.510000228881836,87.52899932861328 C-27.510000228881836,87.52899932861328 27.510000228881836,-87.52899932861328 27.510000228881836,-87.52899932861328"></path></g><g opacity="1" transform="matrix(1,0,0,1,197.0540008544922,160.5919952392578)"><path stroke-linecap="round" stroke-linejoin="round" fill-opacity="0" stroke="rgb(39,37,40)" stroke-opacity="1" stroke-width="1" d=" M-27.510000228881836,87.52899932861328 C-27.510000228881836,87.52899932861328 27.510000228881836,-87.52899932861328 27.510000228881836,-87.52899932861328"></path></g><g opacity="1" transform="matrix(1,0,0,1,203.20799255371094,153.74600219726562)"><path stroke-linecap="round" stroke-linejoin="round" fill-opacity="0" stroke="rgb(39,37,40)" stroke-opacity="1" stroke-width="1" d=" M-27.510000228881836,87.52899932861328 C-27.510000228881836,87.52899932861328 27.510000228881836,-87.52899932861328 27.510000228881836,-87.52899932861328"></path></g><g opacity="1" transform="matrix(1,0,0,1,207.8489990234375,151.43699645996094)"><path stroke-linecap="round" stroke-linejoin="round" fill-opacity="0" stroke="rgb(39,37,40)" stroke-opacity="1" stroke-width="1" d=" M-27.510000228881836,87.52899932861328 C-27.510000228881836,87.52899932861328 27.510000228881836,-87.52899932861328 27.510000228881836,-87.52899932861328"></path></g><g opacity="1" transform="matrix(1,0,0,1,213.5330047607422,145.37399291992188)"><path stroke-linecap="round" stroke-linejoin="round" fill-opacity="0" stroke="rgb(39,37,40)" stroke-opacity="1" stroke-width="1" d=" M-27.510000228881836,87.52899932861328 C-27.510000228881836,87.52899932861328 27.510000228881836,-87.52799987792969 27.510000228881836,-87.52799987792969"></path></g><g opacity="1" transform="matrix(1,0,0,1,218.1719970703125,143.06500244140625)"><path stroke-linecap="round" stroke-linejoin="round" fill-opacity="0" stroke="rgb(39,37,40)" stroke-opacity="1" stroke-width="1" d=" M-27.510000228881836,87.52899932861328 C-27.510000228881836,87.52899932861328 27.510000228881836,-87.52799987792969 27.510000228881836,-87.52799987792969"></path></g><g opacity="1" transform="matrix(1,0,0,1,224.3260040283203,136.218994140625)"><path stroke-linecap="round" stroke-linejoin="round" fill-opacity="0" stroke="rgb(39,37,40)" stroke-opacity="1" stroke-width="1" d=" M-27.510000228881836,87.52899932861328 C-27.510000228881836,87.52899932861328 27.510000228881836,-87.52799987792969 27.510000228881836,-87.52799987792969"></path></g><g opacity="1" transform="matrix(1,0,0,1,228.9669952392578,133.90899658203125)"><path stroke-linecap="round" stroke-linejoin="round" fill-opacity="0" stroke="rgb(39,37,40)" stroke-opacity="1" stroke-width="1" d=" M-27.510000228881836,87.52899932861328 C-27.510000228881836,87.52899932861328 27.510000228881836,-87.52799987792969 27.510000228881836,-87.52799987792969"></path></g><g opacity="1" transform="matrix(1,0,0,1,236.0959930419922,123.28900146484375)"><path stroke-linecap="round" stroke-linejoin="round" fill-opacity="0" stroke="rgb(39,37,40)" stroke-opacity="1" stroke-width="1" d=" M-27.510000228881836,87.52899932861328 C-27.510000228881836,87.52899932861328 27.510000228881836,-87.52899932861328 27.510000228881836,-87.52899932861328"></path></g><g opacity="1" transform="matrix(1,0,0,1,240.73699951171875,120.9800033569336)"><path stroke-linecap="round" stroke-linejoin="round" fill-opacity="0" stroke="rgb(39,37,40)" stroke-opacity="1" stroke-width="1" d=" M-27.510000228881836,87.52899932861328 C-27.510000228881836,87.52899932861328 27.510000228881836,-87.52899932861328 27.510000228881836,-87.52899932861328"></path></g><g opacity="1" transform="matrix(1,0,0,1,131.6479949951172,157.1649932861328)"><path stroke-linecap="round" stroke-linejoin="round" fill-opacity="0" stroke="rgb(39,37,40)" stroke-opacity="1" stroke-width="1" d=" M-27.51099967956543,87.52899932861328 C-27.51099967956543,87.52899932861328 27.510000228881836,-87.52899932861328 27.510000228881836,-87.52899932861328"></path></g><g opacity="1" transform="matrix(1,0,0,1,136.28799438476562,154.85499572753906)"><path stroke-linecap="round" stroke-linejoin="round" fill-opacity="0" stroke="rgb(39,37,40)" stroke-opacity="1" stroke-width="1" d=" M-27.510000228881836,87.52899932861328 C-27.510000228881836,87.52899932861328 27.510000228881836,-87.52899932861328 27.510000228881836,-87.52899932861328"></path></g><g opacity="1" transform="matrix(1,0,0,1,142.44200134277344,148.00900268554688)"><path stroke-linecap="round" stroke-linejoin="round" fill-opacity="0" stroke="rgb(39,37,40)" stroke-opacity="1" stroke-width="1" d=" M-27.510000228881836,87.52899932861328 C-27.510000228881836,87.52899932861328 27.510000228881836,-87.52899932861328 27.510000228881836,-87.52899932861328"></path></g><g opacity="1" transform="matrix(1,0,0,1,147.08200073242188,145.69900512695312)"><path stroke-linecap="round" stroke-linejoin="round" fill-opacity="0" stroke="rgb(39,37,40)" stroke-opacity="1" stroke-width="1" d=" M-27.510000228881836,87.52899932861328 C-27.510000228881836,87.52899932861328 27.510000228881836,-87.52799987792969 27.510000228881836,-87.52799987792969"></path></g><g opacity="1" transform="matrix(1,0,0,1,152.76600646972656,139.63699340820312)"><path stroke-linecap="round" stroke-linejoin="round" fill-opacity="0" stroke="rgb(39,37,40)" stroke-opacity="1" stroke-width="1" d=" M-27.510000228881836,87.52899932861328 C-27.510000228881836,87.52899932861328 27.510000228881836,-87.52899932861328 27.510000228881836,-87.52899932861328"></path></g><g opacity="1" transform="matrix(1,0,0,1,157.406005859375,137.32699584960938)"><path stroke-linecap="round" stroke-linejoin="round" fill-opacity="0" stroke="rgb(39,37,40)" stroke-opacity="1" stroke-width="1" d=" M-27.510000228881836,87.52899932861328 C-27.510000228881836,87.52899932861328 27.510000228881836,-87.52799987792969 27.510000228881836,-87.52799987792969"></path></g><g opacity="1" transform="matrix(1,0,0,1,163.55999755859375,130.48199462890625)"><path stroke-linecap="round" stroke-linejoin="round" fill-opacity="0" stroke="rgb(39,37,40)" stroke-opacity="1" stroke-width="1" d=" M-27.510000228881836,87.52899932861328 C-27.510000228881836,87.52899932861328 27.510000228881836,-87.52899932861328 27.510000228881836,-87.52899932861328"></path></g><g opacity="1" transform="matrix(1,0,0,1,168.2010040283203,128.1719970703125)"><path stroke-linecap="round" stroke-linejoin="round" fill-opacity="0" stroke="rgb(39,37,40)" stroke-opacity="1" stroke-width="1" d=" M-27.510000228881836,87.52899932861328 C-27.510000228881836,87.52899932861328 27.510000228881836,-87.52899932861328 27.510000228881836,-87.52899932861328"></path></g><g opacity="1" transform="matrix(1,0,0,1,175.3300018310547,117.552001953125)"><path stroke-linecap="round" stroke-linejoin="round" fill-opacity="0" stroke="rgb(39,37,40)" stroke-opacity="1" stroke-width="1" d=" M-27.510000228881836,87.52899932861328 C-27.510000228881836,87.52899932861328 27.510000228881836,-87.52899932861328 27.510000228881836,-87.52899932861328"></path></g><g opacity="1" transform="matrix(1,0,0,1,179.97000122070312,115.24199676513672)"><path stroke-linecap="round" stroke-linejoin="round" fill-opacity="0" stroke="rgb(39,37,40)" stroke-opacity="1" stroke-width="1" d=" M-27.510000228881836,87.52899932861328 C-27.510000228881836,87.52899932861328 27.510000228881836,-87.52899932861328 27.510000228881836,-87.52899932861328"></path></g><g opacity="1" transform="matrix(1,0,0,1,186.12399291992188,108.39700317382812)"><path stroke-linecap="round" stroke-linejoin="round" fill-opacity="0" stroke="rgb(39,37,40)" stroke-opacity="1" stroke-width="1" d=" M-27.510000228881836,87.52899932861328 C-27.510000228881836,87.52899932861328 27.510000228881836,-87.52899932861328 27.510000228881836,-87.52899932861328"></path></g><g opacity="1" transform="matrix(1,0,0,1,190.76499938964844,106.08699798583984)"><path stroke-linecap="round" stroke-linejoin="round" fill-opacity="0" stroke="rgb(39,37,40)" stroke-opacity="1" stroke-width="1" d=" M-27.510000228881836,87.52899932861328 C-27.510000228881836,87.52899932861328 27.510000228881836,-87.52899932861328 27.510000228881836,-87.52899932861328"></path></g><g opacity="1" transform="matrix(1,0,0,1,196.44900512695312,100.0250015258789)"><path stroke-linecap="round" stroke-linejoin="round" fill-opacity="0" stroke="rgb(39,37,40)" stroke-opacity="1" stroke-width="1" d=" M-27.510000228881836,87.52899932861328 C-27.510000228881836,87.52899932861328 27.510000228881836,-87.52899932861328 27.510000228881836,-87.52899932861328"></path></g><g opacity="1" transform="matrix(1,0,0,1,201.08799743652344,97.71499633789062)"><path stroke-linecap="round" stroke-linejoin="round" fill-opacity="0" stroke="rgb(39,37,40)" stroke-opacity="1" stroke-width="1" d=" M-27.510000228881836,87.52899932861328 C-27.510000228881836,87.52899932861328 27.510000228881836,-87.52899932861328 27.510000228881836,-87.52899932861328"></path></g><g opacity="1" transform="matrix(1,0,0,1,207.24200439453125,90.86900329589844)"><path stroke-linecap="round" stroke-linejoin="round" fill-opacity="0" stroke="rgb(39,37,40)" stroke-opacity="1" stroke-width="1" d=" M-27.510000228881836,87.52899932861328 C-27.510000228881836,87.52899932861328 27.510000228881836,-87.52899932861328 27.510000228881836,-87.52899932861328"></path></g><g opacity="1" transform="matrix(1,0,0,1,211.88299560546875,88.55899810791016)"><path stroke-linecap="round" stroke-linejoin="round" fill-opacity="0" stroke="rgb(39,37,40)" stroke-opacity="1" stroke-width="1" d=" M-27.510000228881836,87.52899932861328 C-27.510000228881836,87.52899932861328 27.510000228881836,-87.52899932861328 27.510000228881836,-87.52899932861328"></path></g><g opacity="1" transform="matrix(1,0,0,1,67.65799713134766,162.37100219726562)"><path stroke-linecap="round" stroke-linejoin="round" fill-opacity="0" stroke="rgb(39,37,40)" stroke-opacity="1" stroke-width="1" d=" M-27.510000228881836,87.52899932861328 C-27.510000228881836,87.52899932861328 27.510000228881836,-87.52899932861328 27.510000228881836,-87.52899932861328"></path></g><g opacity="1" transform="matrix(1,0,0,1,72.29900360107422,160.06199645996094)"><path stroke-linecap="round" stroke-linejoin="round" fill-opacity="0" stroke="rgb(39,37,40)" stroke-opacity="1" stroke-width="1" d=" M-27.510000228881836,87.52899932861328 C-27.510000228881836,87.52899932861328 27.510000228881836,-87.52899932861328 27.510000228881836,-87.52899932861328"></path></g><g opacity="1" transform="matrix(1,0,0,1,78.4520034790039,153.21499633789062)"><path stroke-linecap="round" stroke-linejoin="round" fill-opacity="0" stroke="rgb(39,37,40)" stroke-opacity="1" stroke-width="1" d=" M-27.510000228881836,87.52899932861328 C-27.510000228881836,87.52899932861328 27.510000228881836,-87.52899932861328 27.510000228881836,-87.52899932861328"></path></g><g opacity="1" transform="matrix(1,0,0,1,83.09200286865234,150.90499877929688)"><path stroke-linecap="round" stroke-linejoin="round" fill-opacity="0" stroke="rgb(39,37,40)" stroke-opacity="1" stroke-width="1" d=" M-27.510000228881836,87.52899932861328 C-27.510000228881836,87.52899932861328 27.510000228881836,-87.52899932861328 27.510000228881836,-87.52899932861328"></path></g><g opacity="1" transform="matrix(1,0,0,1,88.7770004272461,144.843994140625)"><path stroke-linecap="round" stroke-linejoin="round" fill-opacity="0" stroke="rgb(39,37,40)" stroke-opacity="1" stroke-width="1" d=" M-27.510000228881836,87.52899932861328 C-27.510000228881836,87.52899932861328 27.510000228881836,-87.52799987792969 27.510000228881836,-87.52799987792969"></path></g><g opacity="1" transform="matrix(1,0,0,1,93.41699981689453,142.53399658203125)"><path stroke-linecap="round" stroke-linejoin="round" fill-opacity="0" stroke="rgb(39,37,40)" stroke-opacity="1" stroke-width="1" d=" M-27.510000228881836,87.52899932861328 C-27.510000228881836,87.52899932861328 27.510000228881836,-87.52799987792969 27.510000228881836,-87.52799987792969"></path></g><g opacity="1" transform="matrix(1,0,0,1,99.57099914550781,135.68800354003906)"><path stroke-linecap="round" stroke-linejoin="round" fill-opacity="0" stroke="rgb(39,37,40)" stroke-opacity="1" stroke-width="1" d=" M-27.510000228881836,87.52899932861328 C-27.510000228881836,87.52899932861328 27.510000228881836,-87.52899932861328 27.510000228881836,-87.52899932861328"></path></g><g opacity="1" transform="matrix(1,0,0,1,104.21099853515625,133.3780059814453)"><path stroke-linecap="round" stroke-linejoin="round" fill-opacity="0" stroke="rgb(39,37,40)" stroke-opacity="1" stroke-width="1" d=" M-27.510000228881836,87.52899932861328 C-27.510000228881836,87.52899932861328 27.510000228881836,-87.52899932861328 27.510000228881836,-87.52899932861328"></path></g><g opacity="1" transform="matrix(1,0,0,1,111.33999633789062,122.75800323486328)"><path stroke-linecap="round" stroke-linejoin="round" fill-opacity="0" stroke="rgb(39,37,40)" stroke-opacity="1" stroke-width="1" d=" M-27.510000228881836,87.52899932861328 C-27.510000228881836,87.52899932861328 27.510000228881836,-87.52899932861328 27.510000228881836,-87.52899932861328"></path></g><g opacity="1" transform="matrix(1,0,0,1,115.98100280761719,120.447998046875)"><path stroke-linecap="round" stroke-linejoin="round" fill-opacity="0" stroke="rgb(39,37,40)" stroke-opacity="1" stroke-width="1" d=" M-27.510000228881836,87.52899932861328 C-27.510000228881836,87.52899932861328 27.510000228881836,-87.52899932861328 27.510000228881836,-87.52899932861328"></path></g><g opacity="1" transform="matrix(1,0,0,1,122.13400268554688,113.60299682617188)"><path stroke-linecap="round" stroke-linejoin="round" fill-opacity="0" stroke="rgb(39,37,40)" stroke-opacity="1" stroke-width="1" d=" M-27.510000228881836,87.52899932861328 C-27.510000228881836,87.52899932861328 27.510000228881836,-87.52899932861328 27.510000228881836,-87.52899932861328"></path></g><g opacity="1" transform="matrix(1,0,0,1,126.7750015258789,111.29299926757812)"><path stroke-linecap="round" stroke-linejoin="round" fill-opacity="0" stroke="rgb(39,37,40)" stroke-opacity="1" stroke-width="1" d=" M-27.510000228881836,87.52899932861328 C-27.510000228881836,87.52899932861328 27.510000228881836,-87.52899932861328 27.510000228881836,-87.52899932861328"></path></g><g opacity="1" transform="matrix(1,0,0,1,132.45899963378906,105.23100280761719)"><path stroke-linecap="round" stroke-linejoin="round" fill-opacity="0" stroke="rgb(39,37,40)" stroke-opacity="1" stroke-width="1" d=" M-27.510000228881836,87.52899932861328 C-27.510000228881836,87.52899932861328 27.510000228881836,-87.52899932861328 27.510000228881836,-87.52899932861328"></path></g><g opacity="1" transform="matrix(1,0,0,1,137.09800720214844,102.9209976196289)"><path stroke-linecap="round" stroke-linejoin="round" fill-opacity="0" stroke="rgb(39,37,40)" stroke-opacity="1" stroke-width="1" d=" M-27.510000228881836,87.52899932861328 C-27.510000228881836,87.52899932861328 27.510000228881836,-87.52899932861328 27.510000228881836,-87.52899932861328"></path></g><g opacity="1" transform="matrix(1,0,0,1,143.2530059814453,96.07499694824219)"><path stroke-linecap="round" stroke-linejoin="round" fill-opacity="0" stroke="rgb(39,37,40)" stroke-opacity="1" stroke-width="1" d=" M-27.510000228881836,87.52899932861328 C-27.510000228881836,87.52899932861328 27.510000228881836,-87.52899932861328 27.510000228881836,-87.52899932861328"></path></g><g opacity="1" transform="matrix(1,0,0,1,147.89300537109375,93.76599884033203)"><path stroke-linecap="round" stroke-linejoin="round" fill-opacity="0" stroke="rgb(39,37,40)" stroke-opacity="1" stroke-width="1" d=" M-27.510000228881836,87.52899932861328 C-27.510000228881836,87.52899932861328 27.510000228881836,-87.52899932861328 27.510000228881836,-87.52899932861328"></path></g><g opacity="1" transform="matrix(1,0,0,1,28.010000228881836,139.10699462890625)"><path stroke-linecap="round" stroke-linejoin="round" fill-opacity="0" stroke="rgb(39,37,40)" stroke-opacity="1" stroke-width="1" d=" M-27.510000228881836,87.52899932861328 C-27.510000228881836,87.52899932861328 27.510000228881836,-87.52899932861328 27.510000228881836,-87.52899932861328"></path></g><g opacity="1" transform="matrix(1,0,0,1,32.6510009765625,136.7969970703125)"><path stroke-linecap="round" stroke-linejoin="round" fill-opacity="0" stroke="rgb(39,37,40)" stroke-opacity="1" stroke-width="1" d=" M-27.510000228881836,87.52899932861328 C-27.510000228881836,87.52899932861328 27.510000228881836,-87.52899932861328 27.510000228881836,-87.52899932861328"></path></g><g opacity="1" transform="matrix(1,0,0,1,38.80500030517578,129.9499969482422)"><path stroke-linecap="round" stroke-linejoin="round" fill-opacity="0" stroke="rgb(39,37,40)" stroke-opacity="1" stroke-width="1" d=" M-27.510000228881836,87.52899932861328 C-27.510000228881836,87.52899932861328 27.510000228881836,-87.52899932861328 27.510000228881836,-87.52899932861328"></path></g><g opacity="1" transform="matrix(1,0,0,1,43.44499969482422,127.64099884033203)"><path stroke-linecap="round" stroke-linejoin="round" fill-opacity="0" stroke="rgb(39,37,40)" stroke-opacity="1" stroke-width="1" d=" M-27.510000228881836,87.52899932861328 C-27.510000228881836,87.52899932861328 27.510000228881836,-87.52899932861328 27.510000228881836,-87.52899932861328"></path></g><g opacity="1" transform="matrix(1,0,0,1,50.57400131225586,117.02100372314453)"><path stroke-linecap="round" stroke-linejoin="round" fill-opacity="0" stroke="rgb(39,37,40)" stroke-opacity="1" stroke-width="1" d=" M-27.510000228881836,87.52899932861328 C-27.510000228881836,87.52899932861328 27.510000228881836,-87.52899932861328 27.510000228881836,-87.52899932861328"></path></g><g opacity="1" transform="matrix(1,0,0,1,55.21500015258789,114.71099853515625)"><path stroke-linecap="round" stroke-linejoin="round" fill-opacity="0" stroke="rgb(39,37,40)" stroke-opacity="1" stroke-width="1" d=" M-27.510000228881836,87.52899932861328 C-27.510000228881836,87.52899932861328 27.510000228881836,-87.52899932861328 27.510000228881836,-87.52899932861328"></path></g><g opacity="1" transform="matrix(1,0,0,1,61.36800003051758,107.86499786376953)"><path stroke-linecap="round" stroke-linejoin="round" fill-opacity="0" stroke="rgb(39,37,40)" stroke-opacity="1" stroke-width="1" d=" M-27.510000228881836,87.52899932861328 C-27.510000228881836,87.52899932861328 27.510000228881836,-87.52899932861328 27.510000228881836,-87.52899932861328"></path></g><g opacity="1" transform="matrix(1,0,0,1,66.00900268554688,105.55599975585938)"><path stroke-linecap="round" stroke-linejoin="round" fill-opacity="0" stroke="rgb(39,37,40)" stroke-opacity="1" stroke-width="1" d=" M-27.51099967956543,87.52899932861328 C-27.51099967956543,87.52899932861328 27.510000228881836,-87.52899932861328 27.510000228881836,-87.52899932861328"></path></g><g opacity="1" transform="matrix(1,0,0,1,71.69300079345703,99.49299621582031)"><path stroke-linecap="round" stroke-linejoin="round" fill-opacity="0" stroke="rgb(39,37,40)" stroke-opacity="1" stroke-width="1" d=" M-27.510000228881836,87.52899932861328 C-27.510000228881836,87.52899932861328 27.510000228881836,-87.52899932861328 27.510000228881836,-87.52899932861328"></path></g><g opacity="1" transform="matrix(1,0,0,1,76.33300018310547,97.18399810791016)"><path stroke-linecap="round" stroke-linejoin="round" fill-opacity="0" stroke="rgb(39,37,40)" stroke-opacity="1" stroke-width="1" d=" M-27.510000228881836,87.52899932861328 C-27.510000228881836,87.52899932861328 27.510000228881836,-87.52899932861328 27.510000228881836,-87.52899932861328"></path></g><g opacity="1" transform="matrix(1,0,0,1,82.48699951171875,90.33799743652344)"><path stroke-linecap="round" stroke-linejoin="round" fill-opacity="0" stroke="rgb(39,37,40)" stroke-opacity="1" stroke-width="1" d=" M-27.510000228881836,87.52899932861328 C-27.510000228881836,87.52899932861328 27.510000228881836,-87.52899932861328 27.510000228881836,-87.52899932861328"></path></g><g opacity="1" transform="matrix(1,0,0,1,87.12699890136719,88.02899932861328)"><path stroke-linecap="round" stroke-linejoin="round" fill-opacity="0" stroke="rgb(39,37,40)" stroke-opacity="1" stroke-width="1" d=" M-27.510000228881836,87.52899932861328 C-27.510000228881836,87.52899932861328 27.510000228881836,-87.52899932861328 27.510000228881836,-87.52899932861328"></path></g></g></g><g transform="matrix(1.234429955482483,0,0,1.234429955482483,-65.59725952148438,-32.3717041015625)" opacity="1" style="display: block;"><g opacity="1" transform="matrix(1,0,0,1,175.10400390625,101.06400299072266)"><path fill="rgb(255,255,255)" fill-opacity="1" d=" M-21.61199951171875,33.53099822998047 C-21.61199951171875,33.53099822998047 -39.018001556396484,1.6299999952316284 -39.018001556396484,1.6299999952316284 C-39.018001556396484,1.6299999952316284 21.881000518798828,-33.53099822998047 21.881000518798828,-33.53099822998047 C21.881000518798828,-33.53099822998047 39.01900100708008,-2.0480000972747803 39.01900100708008,-2.0480000972747803 C39.01900100708008,-2.0480000972747803 -21.61199951171875,33.53099822998047 -21.61199951171875,33.53099822998047z"></path><path stroke-linecap="round" stroke-linejoin="round" fill-opacity="0" stroke="rgb(39,37,40)" stroke-opacity="1" stroke-width="1.5" d=" M-21.61199951171875,33.53099822998047 C-21.61199951171875,33.53099822998047 -39.018001556396484,1.6299999952316284 -39.018001556396484,1.6299999952316284 C-39.018001556396484,1.6299999952316284 21.881000518798828,-33.53099822998047 21.881000518798828,-33.53099822998047 C21.881000518798828,-33.53099822998047 39.01900100708008,-2.0480000972747803 39.01900100708008,-2.0480000972747803 C39.01900100708008,-2.0480000972747803 -21.61199951171875,33.53099822998047 -21.61199951171875,33.53099822998047z"></path></g></g></g><g clip-path="url(#__lottie_element_39)" transform="matrix(1,0,0,1,109.5,47)" opacity="1" style="display: block;"><g transform="matrix(1.1245299577713013,0,0,1.1245299577713013,1.0187492370605469,4.5754241943359375)" opacity="1" style="display: block;"><g opacity="1" transform="matrix(1,0,0,1,22.333999633789062,44.78099822998047)"><path fill="rgb(255,255,255)" fill-opacity="1" d=" M13.428000450134277,39.72100067138672 C13.428000450134277,39.72100067138672 -15.529999732971191,23.19300079345703 -15.529999732971191,23.19300079345703 C-17.349000930786133,22.15399932861328 -18.472999572753906,20.222000122070312 -18.476999282836914,18.12700080871582 C-18.476999282836914,18.12700080871582 -18.57900047302246,-36.62799835205078 -18.57900047302246,-36.62799835205078 C-18.583999633789062,-39.33599853515625 -15.652999877929688,-41.03099822998047 -13.307999610900879,-39.67599868774414 C-13.307999610900879,-39.67599868774414 15.663000106811523,-22.937999725341797 15.663000106811523,-22.937999725341797 C17.47100067138672,-21.89299964904785 18.583999633789062,-19.964000701904297 18.583999633789062,-17.875999450683594 C18.583999633789062,-17.875999450683594 18.573999404907227,36.73400115966797 18.573999404907227,36.73400115966797 C18.573999404907227,39.374000549316406 15.720999717712402,41.03099822998047 13.428000450134277,39.72100067138672z"></path><path stroke-linecap="butt" stroke-linejoin="round" fill-opacity="0" stroke="rgb(0,0,0)" stroke-opacity="1" stroke-width="1.5" d=" M13.428000450134277,39.72100067138672 C13.428000450134277,39.72100067138672 -15.529999732971191,23.19300079345703 -15.529999732971191,23.19300079345703 C-17.349000930786133,22.15399932861328 -18.472999572753906,20.222000122070312 -18.476999282836914,18.12700080871582 C-18.476999282836914,18.12700080871582 -18.57900047302246,-36.62799835205078 -18.57900047302246,-36.62799835205078 C-18.583999633789062,-39.33599853515625 -15.652999877929688,-41.03099822998047 -13.307999610900879,-39.67599868774414 C-13.307999610900879,-39.67599868774414 15.663000106811523,-22.937999725341797 15.663000106811523,-22.937999725341797 C17.47100067138672,-21.89299964904785 18.583999633789062,-19.964000701904297 18.583999633789062,-17.875999450683594 C18.583999633789062,-17.875999450683594 18.573999404907227,36.73400115966797 18.573999404907227,36.73400115966797 C18.573999404907227,39.374000549316406 15.720999717712402,41.03099822998047 13.428000450134277,39.72100067138672z"></path></g><g opacity="1" transform="matrix(0.6488199830055237,0,0,0.6488199830055237,18.841999053955078,43.89099884033203)"><path stroke-linecap="butt" stroke-linejoin="miter" fill-opacity="0" stroke-miterlimit="4" stroke="rgb(0,0,0)" stroke-opacity="1" stroke-width="1.5" d=" M0.04800000041723251,-4.611000061035156 C2.2939999103546143,-3.313999891281128 3.7860000133514404,-0.5799999833106995 3.7780001163482666,2.187999963760376 C3.7699999809265137,4.943999767303467 2.25600004196167,5.940999984741211 -0.035999998450279236,4.617000102996826 C-2.2929999828338623,3.313999891281128 -3.7860000133514404,0.5809999704360962 -3.7780001163482666,-2.1740000247955322 C-3.7699999809265137,-4.942999839782715 -2.25600004196167,-5.940999984741211 0.04800000041723251,-4.611000061035156z M2.562000036239624,1.5119999647140503 C2.562000036239624,1.5119999647140503 2.562000036239624,1.4320000410079956 2.562000036239624,1.4320000410079956 C2.568000078201294,-0.6510000228881836 1.6009999513626099,-2.502000093460083 0.032999999821186066,-3.4059998989105225 C-1.5579999685287476,-4.324999809265137 -2.5429999828338623,-3.630000114440918 -2.5490000247955322,-1.5199999809265137 C-2.5490000247955322,-1.5199999809265137 -2.549999952316284,-1.437999963760376 -2.549999952316284,-1.437999963760376 C-2.555999994277954,0.6589999794960022 -1.5880000591278076,2.509999990463257 -0.020999999716877937,3.4149999618530273 C1.5579999685287476,4.326000213623047 2.555999994277954,3.635999917984009 2.562000036239624,1.5119999647140503z"></path></g><g opacity="1" transform="matrix(0.6488199830055237,0,0,0.6488199830055237,12.46399974822998,39.97200012207031)"><path stroke-linecap="butt" stroke-linejoin="miter" fill-opacity="0" stroke-miterlimit="4" stroke="rgb(0,0,0)" stroke-opacity="1" stroke-width="1.5" d=" M3.4210000038146973,-1.6970000267028809 C3.4210000038146973,-1.6970000267028809 0.6349999904632568,5.646999835968018 0.6349999904632568,5.646999835968018 C0.6349999904632568,5.646999835968018 -0.6629999876022339,4.8979997634887695 -0.6629999876022339,4.8979997634887695 C-0.6629999876022339,4.8979997634887695 -3.4210000038146973,-5.6479997634887695 -3.4210000038146973,-5.6479997634887695 C-3.4210000038146973,-5.6479997634887695 -2.181999921798706,-4.932000160217285 -2.181999921798706,-4.932000160217285 C-2.181999921798706,-4.932000160217285 0.03099999949336052,3.7639999389648438 0.03099999949336052,3.7639999389648438 C0.03099999949336052,3.7639999389648438 2.2060000896453857,-2.4000000953674316 2.2060000896453857,-2.4000000953674316 C2.2060000896453857,-2.4000000953674316 3.4210000038146973,-1.6970000267028809 3.4210000038146973,-1.6970000267028809z"></path></g><g opacity="1" transform="matrix(0.6488199830055237,0,0,0.6488199830055237,25.24799919128418,46.65700149536133)"><path stroke-linecap="butt" stroke-linejoin="miter" fill-opacity="0" stroke-miterlimit="4" stroke="rgb(0,0,0)" stroke-opacity="1" stroke-width="1.5" d=" M3.061000108718872,-1.9869999885559082 C3.061000108718872,-1.9869999885559082 3.056999921798706,-0.7910000085830688 3.056999921798706,-0.7910000085830688 C3.056999921798706,-0.7910000085830688 0.5770000219345093,-2.2219998836517334 0.5770000219345093,-2.2219998836517334 C0.5770000219345093,-2.2219998836517334 0.5550000071525574,5.519000053405762 0.5550000071525574,5.519000053405762 C0.5550000071525574,5.519000053405762 -0.6150000095367432,4.843999862670898 -0.6150000095367432,4.843999862670898 C-0.6150000095367432,4.843999862670898 -0.5920000076293945,-2.8980000019073486 -0.5920000076293945,-2.8980000019073486 C-0.5920000076293945,-2.8980000019073486 -3.061000108718872,-4.322999954223633 -3.061000108718872,-4.322999954223633 C-3.061000108718872,-4.322999954223633 -3.056999921798706,-5.519000053405762 -3.056999921798706,-5.519000053405762 C-3.056999921798706,-5.519000053405762 3.061000108718872,-1.9869999885559082 3.061000108718872,-1.9869999885559082z"></path></g><g opacity="1" transform="matrix(0.6488199830055237,0,0,0.6488199830055237,31.464000701904297,50.762001037597656)"><path stroke-linecap="butt" stroke-linejoin="miter" fill-opacity="0" stroke-miterlimit="4" stroke="rgb(0,0,0)" stroke-opacity="1" stroke-width="1.5" d=" M2.6500000953674316,-2.9519999027252197 C2.6500000953674316,-2.9519999027252197 2.6459999084472656,-1.7569999694824219 2.6459999084472656,-1.7569999694824219 C2.6459999084472656,-1.7569999694824219 -1.6109999418258667,-4.215000152587891 -1.6109999418258667,-4.215000152587891 C-1.6109999418258667,-4.215000152587891 -1.61899995803833,-1.7280000448226929 -1.61899995803833,-1.7280000448226929 C-1.61899995803833,-1.7280000448226929 1.2239999771118164,-0.08799999952316284 1.2239999771118164,-0.08799999952316284 C1.2239999771118164,-0.08799999952316284 1.2200000286102295,1.121999979019165 1.2200000286102295,1.121999979019165 C1.2200000286102295,1.121999979019165 -1.621000051498413,-0.5189999938011169 -1.621000051498413,-0.5189999938011169 C-1.621000051498413,-0.5189999938011169 -1.628999948501587,2.3310000896453857 -1.628999948501587,2.3310000896453857 C-1.628999948501587,2.3310000896453857 2.802999973297119,4.890999794006348 2.802999973297119,4.890999794006348 C2.802999973297119,4.890999794006348 2.799999952316284,6.086999893188477 2.799999952316284,6.086999893188477 C2.799999952316284,6.086999893188477 -2.802999973297119,2.8519999980926514 -2.802999973297119,2.8519999980926514 C-2.802999973297119,2.8519999980926514 -2.7780001163482666,-6.086999893188477 -2.7780001163482666,-6.086999893188477 C-2.7780001163482666,-6.086999893188477 2.6500000953674316,-2.9519999027252197 2.6500000953674316,-2.9519999027252197z"></path></g></g></g><g clip-path="url(#__lottie_element_32)" transform="matrix(1,0,0,1,103.5,54)" opacity="1" style="display: block;"><g transform="matrix(1.1245299577713013,0,0,1.1245299577713013,1.0187492370605469,4.5754241943359375)" opacity="1" style="display: block;"><g opacity="1" transform="matrix(1,0,0,1,22.333999633789062,44.78099822998047)"><path fill="rgb(255,255,255)" fill-opacity="1" d=" M13.428000450134277,39.72100067138672 C13.428000450134277,39.72100067138672 -15.529999732971191,23.19300079345703 -15.529999732971191,23.19300079345703 C-17.349000930786133,22.15399932861328 -18.472999572753906,20.222000122070312 -18.476999282836914,18.12700080871582 C-18.476999282836914,18.12700080871582 -18.57900047302246,-36.62799835205078 -18.57900047302246,-36.62799835205078 C-18.583999633789062,-39.33599853515625 -15.652999877929688,-41.03099822998047 -13.307999610900879,-39.67599868774414 C-13.307999610900879,-39.67599868774414 15.663000106811523,-22.937999725341797 15.663000106811523,-22.937999725341797 C17.47100067138672,-21.89299964904785 18.583999633789062,-19.964000701904297 18.583999633789062,-17.875999450683594 C18.583999633789062,-17.875999450683594 18.573999404907227,36.73400115966797 18.573999404907227,36.73400115966797 C18.573999404907227,39.374000549316406 15.720999717712402,41.03099822998047 13.428000450134277,39.72100067138672z"></path><path stroke-linecap="butt" stroke-linejoin="round" fill-opacity="0" stroke="rgb(0,0,0)" stroke-opacity="1" stroke-width="1.5" d=" M13.428000450134277,39.72100067138672 C13.428000450134277,39.72100067138672 -15.529999732971191,23.19300079345703 -15.529999732971191,23.19300079345703 C-17.349000930786133,22.15399932861328 -18.472999572753906,20.222000122070312 -18.476999282836914,18.12700080871582 C-18.476999282836914,18.12700080871582 -18.57900047302246,-36.62799835205078 -18.57900047302246,-36.62799835205078 C-18.583999633789062,-39.33599853515625 -15.652999877929688,-41.03099822998047 -13.307999610900879,-39.67599868774414 C-13.307999610900879,-39.67599868774414 15.663000106811523,-22.937999725341797 15.663000106811523,-22.937999725341797 C17.47100067138672,-21.89299964904785 18.583999633789062,-19.964000701904297 18.583999633789062,-17.875999450683594 C18.583999633789062,-17.875999450683594 18.573999404907227,36.73400115966797 18.573999404907227,36.73400115966797 C18.573999404907227,39.374000549316406 15.720999717712402,41.03099822998047 13.428000450134277,39.72100067138672z"></path></g><g opacity="1" transform="matrix(0.6488199830055237,0,0,0.6488199830055237,18.841999053955078,43.89099884033203)"><path stroke-linecap="butt" stroke-linejoin="miter" fill-opacity="0" stroke-miterlimit="4" stroke="rgb(0,0,0)" stroke-opacity="1" stroke-width="1.5" d=" M0.04800000041723251,-4.611000061035156 C2.2939999103546143,-3.313999891281128 3.7860000133514404,-0.5799999833106995 3.7780001163482666,2.187999963760376 C3.7699999809265137,4.943999767303467 2.25600004196167,5.940999984741211 -0.035999998450279236,4.617000102996826 C-2.2929999828338623,3.313999891281128 -3.7860000133514404,0.5809999704360962 -3.7780001163482666,-2.1740000247955322 C-3.7699999809265137,-4.942999839782715 -2.25600004196167,-5.940999984741211 0.04800000041723251,-4.611000061035156z M2.562000036239624,1.5119999647140503 C2.562000036239624,1.5119999647140503 2.562000036239624,1.4320000410079956 2.562000036239624,1.4320000410079956 C2.568000078201294,-0.6510000228881836 1.6009999513626099,-2.502000093460083 0.032999999821186066,-3.4059998989105225 C-1.5579999685287476,-4.324999809265137 -2.5429999828338623,-3.630000114440918 -2.5490000247955322,-1.5199999809265137 C-2.5490000247955322,-1.5199999809265137 -2.549999952316284,-1.437999963760376 -2.549999952316284,-1.437999963760376 C-2.555999994277954,0.6589999794960022 -1.5880000591278076,2.509999990463257 -0.020999999716877937,3.4149999618530273 C1.5579999685287476,4.326000213623047 2.555999994277954,3.635999917984009 2.562000036239624,1.5119999647140503z"></path></g><g opacity="1" transform="matrix(0.6488199830055237,0,0,0.6488199830055237,12.46399974822998,39.97200012207031)"><path stroke-linecap="butt" stroke-linejoin="miter" fill-opacity="0" stroke-miterlimit="4" stroke="rgb(0,0,0)" stroke-opacity="1" stroke-width="1.5" d=" M3.4210000038146973,-1.6970000267028809 C3.4210000038146973,-1.6970000267028809 0.6349999904632568,5.646999835968018 0.6349999904632568,5.646999835968018 C0.6349999904632568,5.646999835968018 -0.6629999876022339,4.8979997634887695 -0.6629999876022339,4.8979997634887695 C-0.6629999876022339,4.8979997634887695 -3.4210000038146973,-5.6479997634887695 -3.4210000038146973,-5.6479997634887695 C-3.4210000038146973,-5.6479997634887695 -2.181999921798706,-4.932000160217285 -2.181999921798706,-4.932000160217285 C-2.181999921798706,-4.932000160217285 0.03099999949336052,3.7639999389648438 0.03099999949336052,3.7639999389648438 C0.03099999949336052,3.7639999389648438 2.2060000896453857,-2.4000000953674316 2.2060000896453857,-2.4000000953674316 C2.2060000896453857,-2.4000000953674316 3.4210000038146973,-1.6970000267028809 3.4210000038146973,-1.6970000267028809z"></path></g><g opacity="1" transform="matrix(0.6488199830055237,0,0,0.6488199830055237,25.24799919128418,46.65700149536133)"><path stroke-linecap="butt" stroke-linejoin="miter" fill-opacity="0" stroke-miterlimit="4" stroke="rgb(0,0,0)" stroke-opacity="1" stroke-width="1.5" d=" M3.061000108718872,-1.9869999885559082 C3.061000108718872,-1.9869999885559082 3.056999921798706,-0.7910000085830688 3.056999921798706,-0.7910000085830688 C3.056999921798706,-0.7910000085830688 0.5770000219345093,-2.2219998836517334 0.5770000219345093,-2.2219998836517334 C0.5770000219345093,-2.2219998836517334 0.5550000071525574,5.519000053405762 0.5550000071525574,5.519000053405762 C0.5550000071525574,5.519000053405762 -0.6150000095367432,4.843999862670898 -0.6150000095367432,4.843999862670898 C-0.6150000095367432,4.843999862670898 -0.5920000076293945,-2.8980000019073486 -0.5920000076293945,-2.8980000019073486 C-0.5920000076293945,-2.8980000019073486 -3.061000108718872,-4.322999954223633 -3.061000108718872,-4.322999954223633 C-3.061000108718872,-4.322999954223633 -3.056999921798706,-5.519000053405762 -3.056999921798706,-5.519000053405762 C-3.056999921798706,-5.519000053405762 3.061000108718872,-1.9869999885559082 3.061000108718872,-1.9869999885559082z"></path></g><g opacity="1" transform="matrix(0.6488199830055237,0,0,0.6488199830055237,31.464000701904297,50.762001037597656)"><path stroke-linecap="butt" stroke-linejoin="miter" fill-opacity="0" stroke-miterlimit="4" stroke="rgb(0,0,0)" stroke-opacity="1" stroke-width="1.5" d=" M2.6500000953674316,-2.9519999027252197 C2.6500000953674316,-2.9519999027252197 2.6459999084472656,-1.7569999694824219 2.6459999084472656,-1.7569999694824219 C2.6459999084472656,-1.7569999694824219 -1.6109999418258667,-4.215000152587891 -1.6109999418258667,-4.215000152587891 C-1.6109999418258667,-4.215000152587891 -1.61899995803833,-1.7280000448226929 -1.61899995803833,-1.7280000448226929 C-1.61899995803833,-1.7280000448226929 1.2239999771118164,-0.08799999952316284 1.2239999771118164,-0.08799999952316284 C1.2239999771118164,-0.08799999952316284 1.2200000286102295,1.121999979019165 1.2200000286102295,1.121999979019165 C1.2200000286102295,1.121999979019165 -1.621000051498413,-0.5189999938011169 -1.621000051498413,-0.5189999938011169 C-1.621000051498413,-0.5189999938011169 -1.628999948501587,2.3310000896453857 -1.628999948501587,2.3310000896453857 C-1.628999948501587,2.3310000896453857 2.802999973297119,4.890999794006348 2.802999973297119,4.890999794006348 C2.802999973297119,4.890999794006348 2.799999952316284,6.086999893188477 2.799999952316284,6.086999893188477 C2.799999952316284,6.086999893188477 -2.802999973297119,2.8519999980926514 -2.802999973297119,2.8519999980926514 C-2.802999973297119,2.8519999980926514 -2.7780001163482666,-6.086999893188477 -2.7780001163482666,-6.086999893188477 C-2.7780001163482666,-6.086999893188477 2.6500000953674316,-2.9519999027252197 2.6500000953674316,-2.9519999027252197z"></path></g></g></g></g></svg>